<?xml version="1.0" encoding="UTF-8"?>
<svg id="Layer_1" data-name="Layer 1" xmlns="http://www.w3.org/2000/svg" viewBox="0 0 512 512">
  <defs>
    <style>
      .cls-1 {
        fill: #6264ad;
      }

      .cls-1, .cls-2, .cls-3, .cls-4, .cls-5, .cls-6, .cls-7, .cls-8, .cls-9, .cls-10, .cls-11, .cls-12, .cls-13, .cls-14, .cls-15, .cls-16, .cls-17, .cls-18, .cls-19, .cls-20, .cls-21, .cls-22, .cls-23, .cls-24, .cls-25, .cls-26, .cls-27, .cls-28, .cls-29, .cls-30, .cls-31, .cls-32, .cls-33, .cls-34, .cls-35, .cls-36, .cls-37, .cls-38, .cls-39, .cls-40, .cls-41, .cls-42, .cls-43, .cls-44, .cls-45, .cls-46, .cls-47, .cls-48, .cls-49, .cls-50, .cls-51, .cls-52, .cls-53, .cls-54, .cls-55, .cls-56, .cls-57, .cls-58 {
        stroke-width: 0px;
      }

      .cls-2 {
        fill: #656cb2;
      }

      .cls-3 {
        fill: #5e59a7;
      }

      .cls-4 {
        fill: #ece6f3;
      }

      .cls-5 {
        fill: #6261ab;
      }

      .cls-6 {
        fill: #5e5ca8;
      }

      .cls-7 {
        fill: #837bb9;
      }

      .cls-8 {
        fill: #e7e3f1;
      }

      .cls-9 {
        fill: #6365ae;
      }

      .cls-10 {
        fill: #7d71b3;
      }

      .cls-11 {
        fill: #847ebb;
      }

      .cls-12 {
        fill: #5b52a3;
      }

      .cls-13 {
        fill: #666db3;
      }

      .cls-14 {
        fill: #584a9e;
      }

      .cls-15 {
        fill: #8681bd;
      }

      .cls-16 {
        fill: #605eaa;
      }

      .cls-17 {
        fill: #5c54a4;
      }

      .cls-18 {
        fill: #9f97ca;
      }

      .cls-19 {
        fill: #7f74b5;
      }

      .cls-20 {
        fill: #7e74b5;
      }

      .cls-21 {
        fill: #7867ae;
      }

      .cls-22 {
        fill: #eeecf6;
      }

      .cls-23 {
        fill: #7560aa;
      }

      .cls-24 {
        fill: #7a6aaf;
      }

      .cls-25 {
        fill: #594da0;
      }

      .cls-26 {
        fill: #6a73b6;
      }

      .cls-27 {
        fill: #e6dfef;
      }

      .cls-28 {
        fill: #5a51a2;
      }

      .cls-29 {
        fill: #e8e6f3;
      }

      .cls-30 {
        fill: #7067ae;
      }

      .cls-31 {
        fill: #7764ac;
      }

      .cls-32 {
        fill: #57479d;
      }

      .cls-33 {
        fill: #5e57a6;
      }

      .cls-34 {
        fill: #6971b5;
      }

      .cls-35 {
        fill: #6468b0;
      }

      .cls-36 {
        fill: #56469c;
      }

      .cls-37 {
        fill: #ece9f4;
      }

      .cls-38 {
        fill: #584b9f;
      }

      .cls-39 {
        fill: #5d56a5;
      }

      .cls-40 {
        fill: #666cb2;
      }

      .cls-41 {
        fill: #57489d;
      }

      .cls-42 {
        fill: #5e5aa7;
      }

      .cls-43 {
        fill: #6262ac;
      }

      .cls-44 {
        fill: #8387c2;
      }

      .cls-45 {
        fill: #ece8f4;
      }

      .cls-46 {
        fill: #7e73b5;
      }

      .cls-47 {
        fill: #7c6fb2;
      }

      .cls-48 {
        fill: #e7e1f0;
      }

      .cls-49 {
        fill: #e7e5f3;
      }

      .cls-50 {
        fill: #e7e4f2;
      }

      .cls-51 {
        fill: #5b53a3;
      }

      .cls-52 {
        fill: #7470b4;
      }

      .cls-53 {
        fill: #5a50a1;
      }

      .cls-54 {
        fill: #5f5ca9;
      }

      .cls-55 {
        fill: #7365ad;
      }

      .cls-56 {
        fill: #6160ab;
      }

      .cls-57 {
        fill: #55449b;
      }

      .cls-58 {
        fill: #eceaf5;
      }
    </style>
  </defs>
  <path class="cls-57" d="m447.03,332.78v35.08c-.31.99-.31,1.99,0,2.99v2.61c-.41,2.38-.4,4.79-.62,7.18-.53,5.57-2.33,10.78-4.38,15.93-3.68,9.28-8.98,17.5-15.75,24.87-6.64,7.22-14.24,13.13-22.96,17.53-7.68,3.87-15.72,6.83-24.37,7.72-2.9.3-5.82.44-8.72.45-15.84.05-31.69.04-47.53.03-1.18-.66-.5-1.39.04-1.93,1.53-1.53,3.29-2.86,4.7-4.45,2.66-3.02,5.78-5.57,8.57-8.45,2.6-2.69,5.08-5.58,8.33-7.6.59-.36,1.2-.81,1.51-1.36,1.09-1.99,3.09-2.99,4.68-4.43.37-.33.84-.6,1.07-1.03,1.7-3.18,5.11-4.58,7.33-7.21,2.55-3.01,5.83-5.34,8.25-8.47.59-.76,1.39-1.22,2.06-1.87,3.86-3.81,7.8-7.54,11.76-11.25,1.78-1.66,3.53-3.41,5.28-5.12.27-.26.54-.51.94-.57,1.58.08,3.09-.45,4.63-.63,6.9-.58,11.56-4.07,13.87-10.64.24-.69.33-1.47.99-1.97,1.85-1.2,3.01-3.09,4.62-4.53,2.87-2.55,5.31-5.53,8.27-7.98.86-.72,1.63-1.53,2.43-2.32,4.77-4.7,9.57-9.37,14.42-13.97,2.64-2.5,5.37-4.97,7.76-7.75.71-.82,1.56-1.76,2.84-.82l-.03-.04Z"/>
  <path class="cls-14" d="m447.03,229.42v43.66c-1.63,1.96-3.41,3.78-5.34,5.4-2.01,1.69-3.76,3.6-5.53,5.49-1.49,1.58-3.38,2.72-4.85,4.34-3.42,3.76-7.06,7.31-10.78,10.76-4.28,3.96-8.31,8.17-12.53,12.19-4.71,4.48-9.24,9.16-14.01,13.58-3.55,3.28-6.86,6.79-10.4,10.08-4.18,3.87-8.13,7.98-12.3,11.86-.91.85-1.67,1.83-2.6,2.66-.64.58-.37.98.4,1.09.55.09,1.12.05,1.67.05h14.36c.62,0,1.27-.06,1.84.18.8.33,1.34.84.35,1.61-3.11.54-6.25.28-9.38.14-9.56.33-19.13.14-28.71.09-1.67,0-3.32-.35-4.95.23-.6-.05-1.21-.19-1.83-.21-7.48-1.27-15.03-.32-22.53-.72-1.24-.46-1.09-1.35-.64-2.26.24-.5.67-.89,1.08-1.26,2.72-2.51,5.39-5.06,7.85-7.82.26-.3.58-.45.97-.49,2.41-.08,4.81-.08,7.21-.01,2.66.08,5.29-.15,7.89-.63,10.71-.72,17.2-11.22,13.05-21.1-.24-.57-.57-1.11-.54-1.76.22-1.94,1.44-3.15,2.74-4.58,3.02-3.31,6.64-5.98,9.45-9.48.93-1.16,2.2-1.99,3.29-3,3.33-3.05,6.61-6.15,9.86-9.28,6.43-6.18,12.76-12.48,19.2-18.66,3.56-3.42,7.14-6.85,10.47-10.51,1-1.09,2.08-2.15,3.23-3.06,3.26-2.59,5.88-5.8,9.01-8.53,3.53-3.08,6.72-6.59,10.08-9.87,2.92-2.86,5.44-6.14,8.87-8.45.59-.4.72-1.17,1.26-1.6.88-.68,1.79-1.6,2.79-.14l.04.03Z"/>
  <path class="cls-25" d="m447.03,229.42c-.84-.49-1.63-.06-1.97.51-1,1.74-2.75,2.63-4.09,3.96-4.93,4.86-9.75,9.84-14.75,14.64-2.14,2.06-4.7,3.71-6.5,6.02-2.44,3.15-5.76,5.35-8.38,8.35-3.02,3.49-6.58,6.51-9.9,9.73-3.02,2.93-6.13,5.78-9.06,8.8-3.58,3.68-7.15,7.42-10.98,10.78-3.8,3.35-7.41,6.9-11.1,10.33-2.83,2.63-5.94,5.07-8.29,8.25-.62.84-1.36,1.71-2.24,2.21-1.4.78-2.05,1.92-2.32,3.4-.91.3-1.38-.32-1.84-.91-3.24-4.21-7.66-5.85-12.82-6.11-5.58-.28-11.17-.18-16.75-.4-1.12-.77-.68-1.66-.01-2.35,2.88-3,5.79-5.98,8.85-8.8,3.65-3.35,7.37-6.63,10.63-10.37,1.35-1.56,3.17-2.52,4.56-4.07,4.48-4.97,9.66-9.23,14.32-14.03,3.06-3.15,6.25-6.2,9.51-9.16,2.93-2.66,5.75-5.47,8.56-8.24,2.53-2.51,5.15-4.99,7.69-7.49,3.81-3.72,7.45-7.64,11.53-11.09,1.06-.89,1.93-1.93,2.88-2.9,4.65-4.74,9.42-9.32,14.17-13.94,3.68-3.58,7.45-7.09,11.09-10.69,3.82-3.78,7.94-7.28,11.58-11.27,1.08-1.18,2.44-2.11,3.6-3.23.57-.54,1.25-.82,2.03-.36v38.44l-.03-.03Z"/>
  <path class="cls-13" d="m65.02,173.46v-24.26c.98-2.48,3.19-3.92,5.04-5.58,1.62-1.44,3.05-3.08,4.61-4.57,2.99-2.87,5.98-5.74,8.89-8.69,2.35-2.38,4.92-4.53,7.12-7.06.94-1.07,1.93-2.11,3.22-2.81.72-.39,1.3-.97,1.81-1.58,3.46-4.13,7.49-7.73,11.49-11.3,3.09-2.77,6.02-5.71,8.92-8.63,2.91-2.92,6.14-5.53,8.79-8.78,1.6-1.96,3.82-3.5,5.62-5.37,3.36-3.47,6.92-6.74,10.38-10.1,3.45-3.35,6.59-7.09,10.59-9.86h26.12c.68.88.18,1.6-.44,2.1-3.36,2.74-5.88,6.34-9.45,8.89-1.15.81-2.21,1.83-2.84,3.15-.22.45-.53.88-.94,1.15-3.71,2.38-6.54,5.75-9.59,8.8-3.28,3.27-7,6.1-9.86,9.81-.99,1.29-2.47,2.23-3.72,3.31-2.03,1.76-3.54,4.08-5.64,5.62-2.99,2.2-5.22,5.11-7.81,7.64-2.86,2.82-6.18,5.21-8.6,8.44-.91,1.22-2.28,1.87-3.32,2.93-2.55,2.59-5.11,5.17-7.8,7.63-1.38,1.26-2.82,2.53-3.98,4.08-1.08,1.44-2.64,2.42-3.92,3.67-2.7,2.63-5.49,5.17-8.18,7.81-3.04,2.99-5.98,6.06-9.16,8.92-2.47,2.23-4.85,4.57-7.15,7-2.25,2.38-4.75,4.53-7.08,6.86-.71.71-1.84,1.65-3.15.76h.01Z"/>
  <path class="cls-53" d="m447.03,191c-1.98.9-3.35,2.6-4.84,4.04-3.26,3.13-6.63,6.15-9.77,9.39-2.53,2.63-5.26,5.06-7.76,7.75-2.46,2.66-5.53,4.77-7.94,7.51-2.46,2.81-5.22,5.3-7.88,7.88-3.41,3.31-6.82,6.64-10.27,9.9-4.59,4.32-9.21,8.63-13.64,13.11-4.44,4.47-9.08,8.72-13.51,13.19-5.28,5.33-10.55,10.68-16.15,15.65-2.15,1.9-3.8,4.26-5.97,6.02-3.62,2.93-6.65,6.45-10.08,9.57-4.35,3.96-8.48,8.15-12.71,12.24-.36.35-.66.75-.75,1.26-.46.68-1.18.58-1.85.58-5.62,0-11.25.06-16.86-.03-1.29-.28-1.12-1.15-.71-2.01.35-.73,1.02-1.24,1.61-1.8,3.74-3.59,7.45-7.21,11.16-10.83,2.55-2.51,5.03-5.11,7.73-7.48,2.83-2.47,5.53-5.11,8.09-7.86,1-1.09,2.12-2.08,3.18-3.11,2.38-2.32,4.95-4.44,7.17-6.94.89-1,2.19-1.43,3.08-2.39,3.22-3.5,6.68-6.76,10.09-10.05,3.24-3.13,6.38-6.38,9.66-9.5,2.95-2.81,5.85-5.69,8.69-8.61,2.26-2.34,4.63-4.62,7.06-6.81,1.43-1.29,2.77-2.66,4.08-4.05,2.34-2.47,4.98-4.62,7.31-7.09,2.59-2.74,5.7-4.9,8.18-7.76,1.02-1.16,2.07-2.29,3.49-3.04,1.17-.62,1.76-1.89,2.65-2.84,2.6-2.79,5.64-5.13,8.11-8.09,1.24-1.48,3.04-2.53,4.39-3.99,3.98-4.25,8.47-7.95,12.51-12.12,2.87-2.95,5.91-5.73,8.76-8.67.91-.94,1.8-2.57,3.68-1.7v18.68Z"/>
  <path class="cls-35" d="m201.51,64.88h33.59c.45.86-.1,1.42-.62,1.96-2.23,2.42-4.8,4.48-7.04,6.9-3.67,3.95-7.82,7.39-11.63,11.2-2.82,2.83-5.52,5.85-8.69,8.34-.89.69-1.65,1.52-2.43,2.3-4.48,4.44-9.08,8.75-13.52,13.24-3.65,3.71-7.51,7.19-11.22,10.83-3.56,3.5-6.87,7.31-10.82,10.45-1.42,1.12-2.52,2.64-3.95,3.8-3.46.31-6.94.13-10.4.14-6.25.03-12.49.01-18.75,0-1.11,0-2.23.04-3.33-.17-1.39-.67-1.2-1.7-.37-2.56,2.17-2.3,4.38-4.59,6.74-6.69,1.76-1.56,3.51-3.13,4.99-4.95.99-1.22,2.38-1.94,3.45-3.1,2.66-2.92,5.7-5.46,8.61-8.12,2.51-2.3,4.83-4.81,7.27-7.18,3.86-3.74,7.48-7.76,11.54-11.3,1.93-1.69,3.59-3.62,5.49-5.31,3.2-2.83,6.14-5.96,9.12-9.01,2.61-2.65,5.57-4.94,7.97-7.8,1.11-1.31,2.53-2.15,3.99-2.96h.01Z"/>
  <path class="cls-28" d="m447.03,144.73v18.66c-2.87,3.51-6.23,6.55-9.46,9.7-4.79,4.68-9.63,9.32-14.4,14-6.33,6.2-12.66,12.4-19.17,18.43-3.13,2.9-5.89,6.2-9.12,8.94-2.97,2.53-5.22,5.8-8.47,8.04-.51.36-.82.91-1.24,1.38-2.26,2.53-4.93,4.66-7.23,7.14-2.74,2.96-5.93,5.43-8.63,8.42-1.08,1.2-2.15,2.43-3.54,3.28-1.53.93-2.32,2.55-3.59,3.73-4.72,4.36-9.24,8.96-13.96,13.32-3.87,3.58-7.69,7.22-11.39,10.95-4.18,4.23-8.58,8.22-12.79,12.44-3.85,3.85-7.75,7.67-11.68,11.43-4.65,4.44-9.08,9.11-13.94,13.34-.33.3-.46.73-.81,1.02-.32.23-.6.51-1.02.59-1.03.1-2.02-.23-3.04-.21-1.29-.09-2.51-.48-3.74-.78-.88-.88-.15-1.42.42-1.98,2.7-2.63,5.31-5.34,8.06-7.94,1.15-1.09,2.93-1.48,3.53-3.18,2.33-1.47,4.31-3.37,6.41-5.13.99-.23,1.29-.89,1.11-1.84.18-.82.4-1.65.99-2.29,2.61-2.59,6.11-4.22,8.03-7.55.82-1.42,2.44-1.89,3.51-3,3.22-3.27,6.74-6.22,9.93-9.47,1.88-1.92,3.85-3.63,5.88-5.33,1.56-1.31,2.44-3.23,4.13-4.49,1.42-1.06,2.78-2.2,3.8-3.78.73-1.15,2.63-1.11,3.32-2.52,2.78-1.44,5.3-3.23,7.08-5.84,2.5-3.68,3.04-7.76,2.2-12.07-.12-.6-.4-1.18-.31-1.81.51-2.03,2.21-3.23,3.45-4.74,1.16-1.42,2.48-2.7,4.09-3.71,1.17-.73,2.11-1.87,3.1-2.88,3.53-3.63,7.28-7.04,10.74-10.73.17-.18.39-.3.62-.4,1.72-.22,3.46-.23,5.17-.59,8-1.69,13.05-8.76,12.02-16.88-.09-.68-.14-1.36.22-1.99,2.34-2.96,5.49-5.07,8.11-7.79,2.57-2.66,5.42-5.2,8.13-7.8,2.46-2.34,4.9-4.71,7.22-7.19.93-1,1.81-2.03,2.99-2.78,2.38-1.52,3.67-4.12,5.88-5.87,3.58-2.83,6.78-6.13,10.04-9.32,1.4-1.36,2.88-2.7,4.14-4.23.77-.94,1.72-1.71,2.96-.57.22.6-.14,1.3.26,1.89h0Z"/>
  <path class="cls-6" d="m370.54,64.88h2.24c3.06.39,6.15.39,9.2.76,3.15.37,6.19,1.26,9.17,2.29.46.15.9.42,1.17.88.4.88,0,1.57-.57,2.19-.9.94-1.72,1.96-2.68,2.86-5.33,4.98-10.49,10.14-15.72,15.22-2.7,2.63-5.52,5.16-8.17,7.81-3.1,3.09-6.27,6.14-9.35,9.25-5.1,5.13-10.31,10.18-15.65,15.06-1.52,1.39-2.84,2.93-4.34,4.3-2.69,2.44-5.03,5.28-7.98,7.45-1.22.9-1.81,2.37-3.14,3.15-1.48.45-2.5-.84-3.8-1.03-1.25-.08-2.44-.39-3.65-.64-5.88-1.24-11.84-.46-17.76-.67-.99-.04-1.98.04-2.96-.05-1.45-.55-.82-1.4-.27-2.19,1.25-1.8,2.84-3.28,4.4-4.8,3.6-3.49,7.23-6.95,10.8-10.46,4.14-4.08,8.53-7.94,12.6-12.08,2.82-2.88,5.88-5.48,8.72-8.31,4.66-4.63,9.26-9.32,14.14-13.74,2.42-2.19,4.5-4.79,7.01-6.91,3.9-3.32,6.77-7.76,11.38-10.29h2.24c.99.31,1.99.31,2.99,0l-.03-.03Z"/>
  <path class="cls-16" d="m365.32,64.88c-.21,1.07-1.02,1.75-1.81,2.26-1.43.93-2.57,2.08-3.67,3.38-2.64,3.13-5.98,5.52-8.79,8.47-3.2,3.37-6.81,6.34-9.95,9.73-2.83,3.05-6.27,5.47-8.72,8.85-.95,1.31-2.42,2.1-3.62,3.18-3.78,3.46-7.37,7.14-11.14,10.62-4.53,4.17-8.85,8.58-13.25,12.91-2.91,2.86-6.1,5.46-8.44,8.85-.67.81-1.6.55-2.43.55-8.52.03-17.02,0-25.54,0-.64-.03-1.29.05-1.92-.12-1.15-.9-.37-1.65.27-2.3,3.63-3.69,7.33-7.33,11.07-10.92,2.83-2.72,5.48-5.65,8.57-8.16,2.93-2.39,5.67-5.12,8.3-7.93,2.25-2.41,4.75-4.65,7.14-6.94,2.6-2.48,5.28-4.88,7.69-7.54,2.2-2.43,4.74-4.52,7.09-6.78.58-.55,1.26-1,1.61-1.75.76-1.62,2.44-2.24,3.64-3.38,3.9-3.71,7.58-7.63,11.57-11.23.69-.63,1.49-1.12,2.12-1.8h30.23v.05Z"/>
  <path class="cls-9" d="m165.7,133.16c.12-1.84,1.74-2.84,2.83-3.69,3.11-2.41,5.51-5.48,8.38-8.11,4.1-3.76,8-7.73,12.07-11.53,2.47-2.3,4.89-4.7,7.21-7.17,1.66-1.78,3.68-3.33,5.35-5.08,2.99-3.15,6.51-5.74,9.26-9.11.19-.24.32-.59.57-.73,3.33-1.94,5.33-5.3,8.22-7.72,2.88-2.41,5.57-5.06,8.15-7.8,2.38-2.53,5.28-4.52,7.37-7.33h26.12c.39.89-.23,1.33-.73,1.89-2.97,3.33-6.24,6.37-9.46,9.43-3.18,3.02-5.98,6.43-9.48,9.15-1.78,1.39-3.33,3.13-4.94,4.75-3.8,3.82-7.82,7.42-11.54,11.31-3.29,3.45-6.94,6.51-10.23,9.95-2.34,2.43-4.84,4.77-7.36,7.05-2.06,1.87-4.04,3.82-6.04,5.76-3.18,3.1-6.41,6.15-9.55,9.29-.18.18-.45.18-.71.21-3.1.05-6.19.08-9.29,0-4.52-.09-9.01.59-13.52.31-.95-.06-2.03.21-2.68-.85v.03Z"/>
  <path class="cls-56" d="m335.09,64.88c.05.99-.62,1.58-1.25,2.17-3.86,3.71-7.76,7.37-11.59,11.1-5.35,5.22-10.6,10.56-16.03,15.71-2.46,2.33-4.9,4.67-7.31,7.04-2.48,2.44-5.11,4.79-7.44,7.41-1.49,1.67-3.24,3.2-4.97,4.65-1.99,1.67-3.87,3.4-5.6,5.38-1.44,1.65-3.32,2.9-4.85,4.54-3.32,3.55-6.9,6.86-10.37,10.27-.48.66-1.2.55-1.87.55-7.49,0-14.97.05-22.45-.03-1.56-.39-1.34-1.4-.76-2.42.4-.69,1.02-1.26,1.65-1.78,3.37-2.75,6.47-5.8,9.47-8.92,2.52-2.63,5.67-4.65,7.67-7.8.57-.9,1.61-1.35,2.37-2.08,6.6-6.46,13.4-12.75,19.79-19.42,1.54-1.62,3.51-2.75,4.95-4.49,2.95-3.53,6.68-6.25,9.9-9.52,3.69-3.74,7.57-7.33,11.31-11.05.59-.58,1.44-.75,1.99-1.34h25.39Z"/>
  <path class="cls-2" d="m201.51,64.88c-.13,1.09-1.22,1.33-1.79,2.02-2.66,3.27-6.02,5.84-8.99,8.79-6.37,6.31-12.66,12.71-19.33,18.74-3.01,2.73-5.76,5.75-8.63,8.63-2.88,2.88-5.52,6.09-8.74,8.52-3.13,2.37-5.66,5.31-8.45,7.97-3.69,3.5-7.6,6.83-10.99,10.67-.84.95-2.19,1.51-2.47,2.93-.44.94-1.38,1.06-2.2,1.12-6.56.48-12.24,6.09-13.25,12.84-.1.72-.06,1.49-.48,2.16-3.36,3.28-6.78,6.51-10.11,9.83-1.92,1.9-3.65,4.04-6.02,5.48-1.42.86-2.26,2.28-3.26,3.55-.39.49-.69,1.12-1.24,1.38-2.34,1.09-3.63,3.33-5.51,4.93-3.13,2.64-5.97,5.61-8.79,8.52-4.44,4.57-9.23,8.76-13.6,13.4-.67.71-1.35,1.78-2.64.98v-14.55c2.65-2.48,4.85-5.4,7.63-7.79,1.29-1.11,2.61-2.26,3.67-3.67,1.18-1.58,2.83-2.72,4.25-4.08,3.69-3.56,7.44-7.08,11.17-10.62,9.14-8.67,18.04-17.59,27.07-26.35,3.01-2.92,6.02-5.87,8.99-8.83,3.72-3.71,7.54-7.35,11.53-10.8,1.33-1.15,2.25-2.64,3.56-3.8,3.59-3.15,7.05-6.43,10.44-9.79,4.04-4.01,8.35-7.77,12.17-11.98,3.33-3.67,7.17-6.79,10.56-10.4,2.9-3.08,5.89-6.18,9.28-8.8.6-.46,1.38-.57,1.98-1.02h14.18Z"/>
  <path class="cls-34" d="m151.52,64.88c.05.99-.59,1.61-1.26,2.17-4.23,3.63-7.99,7.75-11.98,11.62-3.64,3.53-7.31,7.03-10.92,10.56-3.29,3.23-6.52,6.54-9.87,9.7-3.71,3.51-7.14,7.32-11.16,10.54-1.48,1.2-2.68,2.74-4.05,4.07-5.31,5.12-10.72,10.17-15.98,15.35-3.69,3.64-7.45,7.21-11.1,10.89-3.26,3.28-6.46,6.65-10.18,9.43-.28-8.09.44-16.07,2.61-23.9,2.63-4.05,6.54-6.88,9.81-10.33,2.38-2.51,4.97-4.83,7.35-7.33,1.84-1.93,3.89-3.64,5.78-5.53,1.56-1.57,3.54-2.69,4.72-4.66.62-1.02,1.75-1.57,2.63-2.35,3.11-2.84,6-5.91,9.11-8.75,4.53-4.14,8.79-8.56,13.29-12.74,1.12-1.04,2.37-1.99,3.22-3.33.85-1.33,2.39-1.93,3.38-3.11,3.53-1.03,7.15-1.45,10.77-1.92.41-.05.9.12,1.16-.39h2.24c.99.31,1.99.31,2.99,0h7.46Z"/>
  <path class="cls-41" d="m387.71,351.77c-.73-.48-1.56-.33-2.35-.33-5.4,0-10.81,0-16.21-.01-.77,0-1.75.24-2.14-.71-.42-1.07.45-1.54,1.17-2.05,1.24-.86,2.08-2.11,3.15-3.13,4.62-4.38,9.07-8.9,13.65-13.32,5.16-4.98,10.4-9.88,15.57-14.86,3.56-3.44,7.01-6.99,10.59-10.4,3.76-3.59,7.51-7.19,11.25-10.81,2.6-2.52,5.33-4.97,7.73-7.72,1.99-2.28,4.54-4.05,6.52-6.33,2.44-2.82,5.67-4.79,7.94-7.77.57-.73,1.53-1.04,2.46-1.25v20.52c-.89,2.59-3.44,3.63-5.1,5.48-3.05,3.41-6.45,6.5-9.79,9.61-4.3,3.99-8.4,8.17-12.62,12.22-3.47,3.35-6.88,6.77-10.4,10.08-5.22,4.93-10.26,10.04-15.44,14.99-.85.81-1.72,1.6-2.6,2.37-.98.85-1.83,1.87-1.94,3.27-.09.18-.22.31-.39.4-.4.13-.76.1-1.04-.27h-.01Z"/>
  <path class="cls-51" d="m442.6,120.46c.88.33.78,1.22.98,1.88,1.53,5.12,2.57,10.35,3.08,15.67.03.3-.01.63.37.76v.37c-.4.75-.09,1.54-.19,2.32-.06.48.18,1-.22,1.42-.86-.05-1.49.26-2.11.93-3.36,3.69-7.08,7.03-10.64,10.54-2.44,2.42-5.62,4.12-7.33,7.27-.12.21-.31.4-.51.54-5.79,4.3-10.29,9.96-15.52,14.86-2.47,2.32-5.12,4.53-7.35,7.21-1.34,1.6-3.17,3.37-5.42,4.18-1,.13-1.22-.67-1.49-1.34-.51-1.26-1.2-2.43-1.96-3.55-2.01-2.64-4.68-4.31-7.79-5.34-.76-.24-1.57-.37-2.03-1.16-.36-.9.09-1.51.68-2.14,2.75-2.93,5.88-5.51,8.62-8.4,2.38-2.51,5.29-4.49,7.33-7.33,1.21-1.67,3.2-2.52,4.48-4.17,2.6-3.37,6.33-5.55,9.17-8.62,3.02-3.27,6.51-6.06,9.43-9.45,1.61-1.85,3.56-3.44,5.42-5.08.64-.58,1.34-1.11,1.93-1.75,2.81-3.06,5.89-5.85,8.84-8.78.59-.59,1.17-1.39,2.23-.85h0Z"/>
  <path class="cls-53" d="m297.41,308.5c.13-.28.18-.63.37-.84,3.51-3.47,6.94-7.06,10.6-10.36,2.26-2.03,4.22-4.35,6.43-6.43,5.76-5.43,11.32-11.08,17.09-16.52,5.66-5.35,11.13-10.92,16.82-16.26,3.01-2.83,6.28-5.43,8.9-8.7,1.16-1.45,3.08-2.29,4.22-3.85,2.07-2.81,5.22-4.52,7.33-7.28.85-1.12,2.01-2.02,3.11-2.91,3.28-2.64,6.13-5.78,9.05-8.75,3.14-3.19,6.6-6.09,9.5-9.56,1.63-1.96,3.83-3.46,5.61-5.35,1.43-1.53,2.92-3,4.44-4.44,2.56-2.43,5.19-4.8,7.72-7.24,3.26-3.14,6.38-6.43,9.73-9.46,4.48-4.04,8.51-8.52,13-12.55,4.18-3.74,8.02-7.89,12.03-11.84,1.09-1.07,1.96-2.46,3.65-2.75v8.96c-1.49.76-2.73,1.79-3.78,3.15-1.04,1.33-2.35,2.5-3.72,3.51-.88.64-1.67,1.29-2.11,2.26-.67,1.49-2.21,2.11-3.29,3.15-2.72,2.61-5.3,5.38-8.17,7.8-2.57,2.17-4.45,5.04-7.4,6.88-1.15.72-1.99,2.11-3,3.19-2.29,2.47-4.66,4.97-7.17,7.09-2.83,2.39-4.95,5.53-8.16,7.49-1.99,1.21-3,3.4-4.81,4.85-3.71,2.96-6.78,6.61-10.2,9.88-2.47,2.37-5.03,4.7-7.45,7.1-3.27,3.27-6.5,6.6-9.87,9.75-2.84,2.66-5.58,5.47-8.26,8.26s-6.1,4.89-8.16,8.29c-.42.71-1.25,1.21-1.97,1.67-2.57,1.7-4.63,4.01-6.82,6.11-2.52,2.41-5.19,4.7-7.5,7.35-1.49,1.71-3.29,3.14-4.94,4.71-2.32,2.21-4.56,4.49-6.94,6.63-3.02,2.73-5.49,6.02-8.78,8.48-1.11.82-1.96,1.96-2.78,2.97-1.63,2.02-4.27,3.06-5.38,5.56-.26.41-.67.54-1.12.55-2.24.06-4.48.06-6.72,0-.45-.01-.86-.14-1.12-.55h0Z"/>
  <path class="cls-36" d="m447.03,332.78c-.76.13-1.4.48-1.94,1.03-3.69,3.73-7.5,7.33-11.25,11.01-4.07,3.99-8.15,7.98-12.21,11.97-4.36,4.29-8.74,8.54-13.1,12.83-.4.4-.82.77-1.42.85-1.33-.88-.78-2.25-.84-3.41-.19-4.57-2.11-8.24-5.61-11.12-.71-.58-1.62-.97-1.9-1.97-.23-1.3.33-2.26,1.29-3.09,2.34-2.02,4.58-4.17,6.7-6.42,2.53-2.7,5.31-5.17,8.15-7.57.94-.8,1.87-1.7,2.59-2.63,2.28-2.95,5.25-5.21,7.79-7.88,3.2-3.37,6.41-6.86,10.24-9.63,1.38-1,2.05-2.6,3.31-3.73,1.79-1.6,3.78-3,5.2-5.02.68-.98,1.74-1.72,2.99-.59v25.38l.03-.03Z"/>
  <path class="cls-40" d="m187.34,64.88c-1.35,1.8-3.32,3.01-4.76,4.67-2.77,3.17-6.27,5.56-8.83,8.96-1.18,1.57-3.09,2.59-4.5,4.09-2.69,2.88-5.56,5.6-8.39,8.35-3.28,3.19-6.67,6.25-9.87,9.51-3.2,3.26-6.76,6.14-9.84,9.54-2.42,2.65-5.3,4.86-7.79,7.46-2.38,2.48-5.38,4.29-7.39,7.21-.98,1.43-2.73,2.32-4,3.56-3.94,3.86-7.72,7.89-11.74,11.66-5.49,5.17-10.71,10.65-16.19,15.83-4.35,4.1-8.69,8.24-13.07,12.31-2.44,2.26-4.77,4.75-7.19,7.06-2.19,2.08-4.1,4.4-6.31,6.45-.67.62-1.42,1.22-2.43,1.25v-9.33c2.35-.62,3.71-2.53,5.31-4.09,3.64-3.53,6.96-7.41,10.86-10.62,2.88-2.37,5.24-5.21,7.98-7.68,2.87-2.59,5.71-5.3,8.29-8.24.93-1.06,2.1-1.93,3.17-2.79,2.82-2.26,5.02-5.1,7.71-7.48,2.41-2.14,4.57-4.65,6.96-6.79,2.29-2.06,4.07-4.65,6.67-6.37.41-.27.84-.57,1.15-.94,2.59-3.17,5.69-5.87,8.58-8.7,2.75-2.7,5.42-5.55,8.33-8.12,2.24-1.98,4.79-3.73,6.42-6.36.19-.31.44-.62.73-.84,5.82-4.45,10.19-10.46,16.12-14.77,1.03-.75,1.24-2.11,2.26-2.91,3.91-3.04,7.09-6.86,10.8-10.11.57-.49,1.17-.95,1.29-1.76h9.7-.03Z"/>
  <path class="cls-1" d="m191.82,133.14c.01-.51.12-.99.5-1.36,3.77-3.58,7.68-7.03,11.27-10.78,2.3-2.42,4.92-4.5,7.13-7.04,1.51-1.72,3.46-3.1,5.1-4.8,3.11-3.24,6.55-6.19,9.73-9.39,4.22-4.26,8.63-8.35,12.95-12.53,3.5-3.4,6.99-6.83,10.47-10.26,4.09-4.03,8.18-8.07,12.28-12.1h13.43c.73.97.09,1.66-.54,2.25-4.38,4.19-8.79,8.38-13.09,12.65-2.63,2.61-5.29,5.19-7.9,7.8-2.44,2.44-4.81,4.97-7.5,7.17-.19.15-.4.3-.57.49-4.71,5.26-10.14,9.79-15.15,14.76-2.84,2.82-5.75,5.6-8.62,8.39-3.94,3.83-7.72,7.86-11.88,11.47-1.16,1-2.05,2.32-3.35,3.19-.46.32-.86.69-1.48.67-3.58.03-7.17.01-10.74,0-.72,0-1.51.17-2.05-.57Z"/>
  <path class="cls-43" d="m309.71,64.88c-.08.59-.44,1.03-.85,1.4-3.26,2.96-6.09,6.36-9.48,9.17-1.61,1.34-2.93,3.02-4.49,4.43-4.23,3.77-8.12,7.91-12.35,11.7-4.01,3.59-7.51,7.75-11.53,11.35-3.55,3.18-6.92,6.58-10.27,9.92-2.55,2.56-5.29,4.97-7.69,7.72-2.72,3.1-6.01,5.69-9.03,8.52-1.27,1.21-3.01,2.06-3.32,4.05-.48.67-1.2.55-1.87.55-3.28,0-6.56.05-9.83-.03-1.51-.49-1.3-1.42-.58-2.43.84-1.17,2.05-1.97,3.05-2.97,2.65-2.66,5.26-5.37,8.22-7.72.91-.72,1.51-1.8,2.39-2.59,3.9-3.53,7.46-7.41,11.49-10.81,1.42-1.2,2.38-2.86,3.8-4.09,3.45-3.02,6.42-6.52,9.82-9.57,5.16-4.63,10.01-9.57,15.02-14.35,3.2-3.05,6.43-6.09,9.54-9.24,1.76-1.79,3.53-3.65,5.67-5.03h12.31-.01Z"/>
  <path class="cls-1" d="m205.24,133.14c2.39-2.86,5.34-5.17,7.85-7.86,3-3.22,6.25-6.18,9.39-9.24,2.68-2.61,5.37-5.28,8.08-7.86,2.66-2.55,5.39-5.08,8.02-7.67,3.38-3.33,6.74-6.7,10.2-9.96,3.73-3.5,7.13-7.36,10.94-10.77,2.91-2.61,5.66-5.39,8.45-8.11,2.23-2.16,4.97-3.91,6.47-6.78h11.57c.64,1.27-.22,2.03-1.04,2.66-1.72,1.35-3.11,3-4.61,4.58-1.83,1.93-3.86,3.65-5.79,5.48-3.56,3.36-7.05,6.78-10.53,10.23-4.09,4.05-8.29,7.99-12.49,11.93-2.88,2.69-5.66,5.52-8.48,8.29-4.41,4.34-8.84,8.65-13.22,13.02-3.32,3.32-6.99,6.28-10.11,9.81-1,1.13-2.11,2.41-3.76,2.84-2.97.03-5.93.03-8.9,0-.72,0-1.51.17-2.05-.57v-.03Z"/>
  <path class="cls-32" d="m447.03,307.4c-1.03-.1-1.89.31-2.39,1.15-1.04,1.69-2.77,2.66-4.01,4.07-3,3.36-6.47,6.2-9.57,9.45-1.49,1.54-3.13,2.96-4.77,4.34-1.29,1.07-1.98,2.59-3.26,3.73-5.02,4.52-9.87,9.23-14.67,13.99-2.64,2.61-5.2,5.3-8.04,7.69-.59.5-.89,1.18-1.03,1.93-.71.75-1.48.32-2.2.08-1.97-.67-3.98-1.12-6.06-1.21-.91-.03-1.54-.57-2.16-1.15-.88-.53-.45-1.03-.06-1.67.98-1.65,2.52-2.74,3.86-4,4.7-4.41,9.1-9.14,13.85-13.49,3.05-2.81,6.07-5.64,8.99-8.56,3.62-3.63,7.44-7.04,10.91-10.81,1.33-1.44,2.87-2.84,4.41-4.16,2.48-2.12,4.72-4.53,7.06-6.82,2.96-2.9,5.8-5.91,9.17-8.33v13.81l-.03-.04Z"/>
  <path class="cls-43" d="m216.81,133.14c1.67-2.64,4.1-4.59,6.32-6.7,2.95-2.81,5.8-5.71,8.8-8.47,3.19-2.93,6.11-6.13,9.28-9.08,5.01-4.67,9.75-9.63,14.86-14.19,3.82-3.42,7.32-7.22,10.96-10.83,3.37-3.35,6.54-6.97,10.23-9.95,2.78-2.24,4.62-5.35,7.66-7.26.64-.4.98-1.12,1.29-1.8h9.33c.51.93-.08,1.52-.63,2.12-1.31,1.42-2.96,2.46-4.27,3.87-4.63,4.97-9.77,9.42-14.58,14.19-4.61,4.58-9.47,8.9-14.01,13.54-2.42,2.47-5.01,4.77-7.4,7.28-3.06,3.2-6.28,6.32-9.65,9.23-1.22,1.06-2.34,2.24-3.44,3.41-3.59,3.82-7.71,7.1-11.26,10.96-1.16,1.26-2.52,2.35-3.47,3.82-.18.27-.5.35-.82.39-2.44.06-4.89.03-7.33.03-.66,0-1.38.1-1.84-.57h-.01Z"/>
  <path class="cls-43" d="m226.51,133.14c0-1.42,1.06-2.39,1.92-3.05,3.99-3,7.26-6.78,10.77-10.22,5.43-5.3,10.99-10.49,16.37-15.85,3.85-3.83,7.68-7.71,11.71-11.39,2.91-2.65,5.79-5.4,8.53-8.26,1.2-1.25,2.37-2.55,3.72-3.62,2.92-2.3,5.61-4.95,8.04-7.64,2.57-2.84,6.02-4.83,7.97-8.24h1.87c-.59,1.67-2.03,2.66-3.27,3.72-1.75,1.51-3.4,3.06-4.85,4.86-1.16,1.43-2.82,2.34-4.14,3.65-2.66,2.66-5.44,5.24-8.07,7.94-4.5,4.66-9.33,8.99-13.92,13.56-5.51,5.48-11.16,10.85-16.73,16.26-5.56,5.4-11.2,10.72-16.79,16.07-.63.6-1.31,1.18-1.26,2.17-.62.63-1.25.63-1.87,0h.01Z"/>
  <path class="cls-30" d="m446.62,142.86l.09-1.57c.14-.14.24-.13.31.06v3.36c-.45-.55-.33-1.22-.41-1.87h.01Z"/>
  <path class="cls-55" d="m447.03,370.84c-.63-.99-.46-1.99,0-2.99v2.99Z"/>
  <path class="cls-52" d="m370.54,64.88c-.99.62-1.99.51-2.99,0h2.99Z"/>
  <path class="cls-44" d="m144.05,64.88c-.99.5-1.99.59-2.99,0h2.99Z"/>
  <path class="cls-18" d="m447.03,141.37c-.1-.04-.21-.06-.31-.06.09-.72-.45-1.54.31-2.17,0,0,0,2.24,0,2.24Z"/>
  <path class="cls-32" d="m322.4,446.89c-9.45.03-18.9.05-28.35.05-7.84,0-15.67-.04-23.5-.05-.51-1.07.12-1.84.81-2.44,4.8-4.21,9.06-8.96,13.79-13.24,2.79-2.52,5.38-5.3,8.09-7.91,2.66-2.56,5.12-5.35,7.99-7.71,1.25-1.03,2.2-2.34,3.37-3.45,5.7-5.4,11.38-10.83,17.02-16.3,3.24-3.14,6.52-6.25,9.66-9.48,1.18-1.21,2.5-2.33,4.1-3,16.43-.04,32.86,0,49.3,0,.77,0,1.65-.21,2.25.55-3.05,3.42-6.13,6.81-9.75,9.68-2.56,2.02-4.43,4.76-6.92,6.87-2.77,2.34-5.12,5.13-7.75,7.64-2.16,2.07-4.1,4.45-6.51,6.27-2.97,2.26-4.62,5.88-8.11,7.58-.94.46-.8,1.8-1.75,2.34-3.38,1.92-5.61,5.17-8.62,7.53-1.7,1.33-2.82,3.26-4.45,4.71-3.02,2.7-5.89,5.6-8.76,8.47-.64.64-1.76.8-1.93,1.9h0Z"/>
  <path class="cls-25" d="m386.96,383.9h-52.23c-1,.98-2.29.84-3.53.84h-41.4c-4.4,0-4.45-.05-7.59,3.08-5.39,5.39-10.86,10.69-16.32,16.02-5.75,5.62-11.63,11.13-17.44,16.72-3.11,3-6.28,5.96-9.21,9.15-1.94,2.11-4.04,4.18-6.25,6.06-2.51,2.14-4.7,4.59-7.08,6.86-1.75,1.66-3.33,3.53-5.75,4.26h-36.94c-.78-1.34.46-1.94,1.09-2.61,3.02-3.24,6.54-5.98,9.48-9.32.9-1.03,2.17-1.67,3.08-2.69,3.24-3.67,6.9-6.94,10.44-10.28,5.6-5.28,10.92-10.82,16.54-16.08,3.11-2.92,6.18-5.91,9.17-8.96,3.72-3.8,7.64-7.4,11.41-11.14,1.88-1.87,4.01-3.47,5.74-5.53.91-1.08,2.29-1.08,3.62-1.09,3.82,2.87,8.17,3.56,12.84,3.51,12.37-.13,24.73-.04,37.11-.05,2.39,0,4.81.55,7.19-.17.8.17,1.61.17,2.42.17h27.95c.81,0,1.62-.03,2.41-.19,2.12.68,4.27.23,6.42.22,12.95-.05,25.9-.04,38.85,0,1.11,0,2.42-.37,3.22.89-1.71.68-3.49.18-5.24.33v.03Z"/>
  <path class="cls-23" d="m392.18,383.55c-15.52,0-31.04-.01-46.56-.03-.68,0-1.36-.04-2.05-.06,0-1,.84-1.17,1.49-1.38,4.36-1.35,7.55-4.03,9.54-8.16.24-.5.55-.97,1.06-1.25.33-.17.86-.08,1.03-.37,2.08-3.71,6.11-5.47,8.63-8.83,1.74-2.32,4.36-3.98,6.33-6.2,1.87-2.08,4.1-3.74,6.32-5.43,3.24-.03,6.47-.05,9.72-.08h1.12c.75-.23,1.48-.24,2.23,0,2.91-.06,5.57.86,8.21,1.94,2.29,1.71,4.43,3.54,5.92,6.09,1.96,3.35,2.08,6.96,1.94,10.65-1.36,5.31-4.17,9.47-9.35,11.77-1.78.8-3.64,1.18-5.57,1.33h0Z"/>
  <path class="cls-38" d="m220.17,446.89c.44-1.42,1.93-1.65,2.83-2.56,4.31-4.36,8.44-8.94,13.09-12.92,2.92-2.5,5.3-5.48,8.22-7.99,2.5-2.14,4.83-4.62,7.26-6.91,4.04-3.81,8-7.71,12.04-11.52,2.59-2.44,5.19-4.93,7.58-7.6,2.26-2.52,4.94-4.68,7.37-7.05,1.8-1.76,3.63-3.54,5.24-5.47.8-.95,1.65-.97,2.63-.97h48.29c-.24,1.34-1.53,1.71-2.34,2.52-4.65,4.61-9.17,9.37-14,13.78-3.91,3.59-7.5,7.51-11.65,10.89-2.17,1.78-3.96,4.05-6.01,6.02-2.35,2.25-4.74,4.5-6.97,6.86-4.39,4.63-9.29,8.72-13.67,13.37-3.08,3.27-6.67,6.05-9.55,9.54-9.86.03-19.7.05-29.56.05-6.94,0-13.88-.04-20.82-.05h.01Z"/>
  <path class="cls-51" d="m135.84,446.21c-6.36-.48-12.43-2.2-18.38-4.38-1.51-.55-3.05-1-4.41-1.9-.66-1.26.22-1.99,1-2.69,3.33-2.97,6.5-6.1,9.72-9.19,3.38-3.26,6.76-6.56,10.13-9.84,2.64-2.57,5.52-4.95,7.82-7.88.67-.84,1.6-1.38,2.37-2.1,4.35-4.03,8.69-8.09,12.87-12.28,3.46-3.45,7.03-6.79,10.45-10.28,2.16-2.19,4.48-4.26,6.61-6.49,2.57-2.68,5.42-5.06,8.03-7.69,2.97-2.99,6.05-5.87,9.07-8.81,3.81-3.72,7.75-7.32,11.44-11.14,2.74-2.84,5.82-5.37,8.35-8.43,1.02-1.22,2.5-2.08,3.85-3.02,8.93-.04,17.86-.06,26.78,0,1.3.84,1.52,2.06.19,3.06-2.2,1.66-3.95,3.76-6.02,5.52-1.52,1.29-3.01,2.59-4.18,4.21-1.33,1.83-3.35,2.91-4.92,4.52-3.69,3.8-7.55,7.45-11.29,11.21-2.59,2.6-5.42,4.94-7.86,7.72-2.03,2.3-4.5,4.35-6.76,6.54-3.13,3.04-6.24,6.11-9.46,9.05-2.87,2.61-5.16,5.8-8.33,8.13-1.24.91-2.38,2.11-3.27,3.49-1.15,1.79-3.17,2.73-4.61,4.27-1.71,1.81-3.76,3.33-5.31,5.3-.95,1.2-2.34,1.8-3.47,2.77-2.97,2.51-5.66,5.33-8.34,8.11-2.42,2.52-5.12,4.77-7.44,7.42-1.31,1.51-2.93,2.81-4.32,4.28-1.56,1.65-3.6,2.82-4.81,4.8-.19.31-.46.59-.77.8-1.9,1.33-3.47,2.96-4.72,4.9v.03Z"/>
  <path class="cls-53" d="m253.16,379.72c-1.33.27-2.24,1.03-3.18,2.03-2.41,2.57-5.07,4.92-7.6,7.36-4.1,3.96-8.2,7.93-12.28,11.9-5.91,5.75-11.65,11.68-17.73,17.24-3.98,3.64-7.72,7.51-11.59,11.25-2.6,2.51-5.56,4.71-7.73,7.71-1.03,1.42-2.78,2.29-3.98,3.6-1.88,2.08-4.17,3.77-5.83,6.06h-27.24c-.68-.89-.09-1.53.46-2.11,2.9-2.97,5.94-5.82,8.84-8.79,1.6-1.63,3.38-3.1,4.97-4.75,3.86-4.03,7.97-7.84,12.01-11.67,2.99-2.84,5.69-5.97,8.88-8.65,3-2.51,5.71-5.48,8.54-8.25,2.34-2.28,4.89-4.44,7.09-6.79,4.58-4.88,9.74-9.12,14.26-14.05,2.12-2.32,4.58-4.38,6.81-6.63,2.47-2.51,5.07-4.9,7.58-7.37,2.64-2.61,5.46-5.06,8.04-7.72,5.87-6.06,12.38-11.44,18.21-17.54.98-1.03,2.05-2.12,3.55-2.5,8.2.01,16.39-.09,24.59.05,1.24.98,1.36,1.63.23,2.82-1.92,2.01-4.16,3.69-6.05,5.73-1.21,1.31-2.57,2.43-4.14,3.28-2.99.09-5.97.08-8.96.03-2.81-.04-5.58.08-8.34.62-5.98.4-10.36,3.33-12.74,8.79-2.3,5.28-1.52,10.4,1.71,15.17.67.98,1.88,1.7,1.62,3.17h0Z"/>
  <path class="cls-28" d="m264.57,340.68c-.94,1.72-2.56,2.88-3.92,4.16-2.6,2.39-5.06,4.93-7.66,7.32-3.17,2.91-6.32,5.87-9.32,8.97-3.82,3.95-7.97,7.57-11.9,11.4-4.57,4.44-8.97,9.07-13.61,13.42-2.84,2.65-5.67,5.35-8.4,8.09-2.5,2.51-5.25,4.79-7.62,7.46-2.52,2.86-5.6,5.22-8.21,8.02-2.66,2.82-5.71,5.19-8.33,8.11-2.17,2.44-4.58,4.85-7.14,6.97-2.64,2.19-4.89,4.75-7.36,7.1-4.74,4.52-9.39,9.11-14.08,13.68-.45.44-.91.85-1.03,1.52h-10.46c-1.76-.37-3.56.14-5.33-.27-.71-.03-1.43-.06-2.14-.09-.62-.3-1.33.06-1.94-.28l-.15.04-.14-.08c-.95-2.23,1.15-2.99,2.19-3.96,3.26-3.06,6.28-6.37,9.59-9.35,2.53-2.29,4.59-5.06,7.44-7.06,1.3-.91,2.08-2.5,3.36-3.6,3.36-2.93,6.27-6.33,9.87-9.06,1.57-1.18,3.26-2.69,4.38-4.54.73-1.21,2.1-1.98,3.17-2.74,3.1-2.21,4.84-5.74,8.11-7.77,1.33-.82,2.25-2.34,3.28-3.62.4-.49.75-.97,1.27-1.33,2.15-1.44,3.78-3.4,5.38-5.4.12-.14.23-.31.39-.4,3.27-1.96,5.65-4.93,8.26-7.57,2.37-2.41,5.49-4.17,7.05-7.36.05-.1.15-.21.24-.27,4.88-3.56,8.69-8.26,13.1-12.3,2.25-2.07,4.41-4.29,6.64-6.37,2.64-2.47,5.31-4.98,7.79-7.66.84-.9,1.75-1.79,2.78-2.44,1.08-.68,1.76-1.52,2.06-2.73.5-.76,1.3-.6,2.02-.6,6.11-.01,12.22-.01,18.34,0,.72,0,1.52-.14,2.02.6h.04Z"/>
  <path class="cls-6" d="m67.15,384.34c-1.42-4.59-1.87-9.35-2.08-14.1-.22-5.02-.06-10.05-.06-15.07,1.61-2.63,3.9-4.62,6.1-6.7,6.16-5.84,12.44-11.57,18.34-17.68,2.88-3,6.28-5.49,9.08-8.53,3.11-3.37,6.73-6.22,9.64-9.77.99-1.21,2.41-1.97,3.44-3.13,3.71-4.17,8.21-7.54,11.99-11.63.46-.51.95-1,1.74-.93,9.75,0,19.49-.05,29.24.03,1.24.27,1.21,1.09.77,1.98-.39.78-.95,1.44-1.6,2.05-3.22,3-6.42,6.02-9.6,9.06-2.93,2.82-5.55,5.97-8.76,8.54-2.01,1.6-3.62,3.72-5.62,5.4-3.42,2.87-6.41,6.2-9.6,9.3-3.46,3.37-6.86,6.83-10.36,10.18-5.24,5.02-10.38,10.13-15.65,15.12-6.38,6.05-12.78,12.08-18.92,18.4-2.33,2.39-5.07,4.38-7.13,7.04-.23.31-.58.46-.98.46l.03-.03Z"/>
  <path class="cls-33" d="m264.57,340.68h-50.36c-.75.85-1.78.8-2.75.81-6.51.01-13.01.06-19.52,0-2.51-.09-5.02.1-7.53.03-1.04-.03-2.08.05-3.13-.14-4.27.15-8.54-.03-12.82.19-1.47.08-2.44,1.3-3.29,2.28-2.26,2.55-4.79,4.83-7.23,7.17-3.76,3.59-7.5,7.22-11.16,10.9-4.09,4.13-8.39,8.06-12.55,12.12-5.17,5.07-10.5,9.99-15.67,15.07-4.1,4.03-8.09,8.18-12.29,12.08-5.85,5.46-11.39,11.25-17.35,16.57-.98.88-1.43,2.43-3.1,2.43-4.85-5.15-8.84-10.89-11.89-17.27-.46-.97-.05-1.67.73-2.2,1.98-1.33,3.35-3.36,5.12-4.83,3.13-2.57,5.34-6.05,8.71-8.31.95-.64,1.42-1.71,2.24-2.47,2.74-2.52,5.56-4.97,8.21-7.57,2.61-2.56,5.15-5.21,7.84-7.68,5.58-5.11,10.76-10.62,16.32-15.75,3-2.78,5.87-5.7,8.78-8.58,3.38-3.36,6.7-6.79,10.38-9.84.68-.57,1.12-1.33,1.7-1.97.63-.71,1.31-1.12,2.29-.81.95.53,1.48,1.48,2.25,2.2,2.93,2.74,6.34,4.3,10.41,4.3h39.9c2.46,0,4.93.54,7.37-.15,1.11.19,2.23.14,3.35.14h83.36c1.12,0,2.24.05,3.35-.18,3.64.78,7.31-.08,10.95.15,1.16.55,2.33.04,3.49.04,10.49,0,20.97-.03,31.46.03.95,0,2.05-.21,2.68.88-.66.46-1.42.35-2.15.35h-13.9c-.94.69-2.01.86-3.15.88-10.83,0-21.67.01-32.52-.01-.98,0-2.01.06-2.75-.8h-25.75l-.03-.04Z"/>
  <path class="cls-17" d="m191.82,340.64c7.46,0,14.93.03,22.39.04-.01.67-.24,1.24-.81,1.6-2.24,1.43-3.56,3.8-5.53,5.43-2.07,1.71-3.78,3.72-5.7,5.55-3.99,3.8-7.99,7.58-11.85,11.5-3.13,3.18-6.34,6.27-9.56,9.33-2.91,2.75-5.79,5.57-8.69,8.34-2.63,2.5-5.13,5.17-7.85,7.55-2.84,2.48-5.28,5.35-8.02,7.93-2.9,2.73-6.18,5.12-8.53,8.4-.46.64-1.24.81-1.76,1.34-3.37,3.41-6.95,6.63-10.22,10.15-1.93,2.08-4.12,3.91-6.11,5.94-3.98,4.05-8.13,7.95-12.19,11.93-1.44,1.42-3.5,2.21-4.31,4.27-5.22-2.08-10.02-4.92-14.51-8.29-.27-1.58.99-2.35,1.88-3.18,3.64-3.36,7.01-7,10.67-10.33,3.8-3.46,7.5-7.04,11.03-10.74,3.29-3.45,7-6.45,10.26-9.93,2.72-2.91,5.75-5.58,8.61-8.38,3.76-3.67,7.63-7.24,11.38-10.92,3.65-3.59,7.27-7.26,11.1-10.68,4.18-3.73,8.2-7.69,12.07-11.75,2.87-2.99,5.93-5.78,8.81-8.74,2.25-2.3,4.36-4.94,7.44-6.34h.01Z"/>
  <path class="cls-9" d="m65.02,253.68v-24.26c1.61-3.04,4.41-4.99,6.78-7.32,5.51-5.44,11.16-10.74,16.73-16.14,5.2-5.04,10.37-10.11,15.6-15.13,4.45-4.29,8.92-8.57,13.34-12.87,3.73-3.62,7.59-7.08,11.26-10.76.86-.86,1.07-2.29,2.43-2.7,8.09-.21,16.19-.27,24.27.03,1.26,1.04,1.39,1.74.3,2.84-2.73,2.78-5.6,5.43-8.34,8.2-3.27,3.29-6.68,6.43-9.93,9.74-2.69,2.73-5.49,5.37-8.26,8.03-4.95,4.77-9.84,9.61-14.82,14.36-1.92,1.83-3.59,3.92-5.85,5.39-1.22.78-1.9,2.11-2.92,3.11-4.38,4.35-8.81,8.63-13.15,13.02-2.33,2.35-4.99,4.45-7.33,6.79-2.72,2.7-5.58,5.26-8.22,8.06-3.06,3.23-6.34,6.27-9.74,9.17-.6.51-1.26,1.11-2.12.42Z"/>
  <path class="cls-35" d="m130.62,165.25c-.44,2.74-2.83,3.99-4.54,5.66-2.25,2.2-4.65,4.23-6.82,6.54-2.55,2.69-5.42,5.07-8.11,7.63-2.41,2.3-4.74,4.68-7.12,7-2.63,2.55-5.26,5.07-7.9,7.6-.4.39-.86.72-1.24,1.12-6.65,7.01-13.9,13.42-20.82,20.16-2.43,2.38-4.97,4.67-7.28,7.17-.5.54-.98,1.15-1.78,1.29v-32.09c.59-.1.99-.49,1.39-.89,3.42-3.41,6.69-6.99,10.31-10.18,2.63-2.32,4.9-4.94,7.53-7.26,2.34-2.07,4.4-4.5,6.77-6.59,3.41-2.99,6.18-6.64,9.82-9.41,1.71-1.3,3.13-2.97,4.67-4.49,2.91-2.87,5.8-5.76,8.7-8.63.41-.41.94-.59,1.51-.69,1.08.5.84,1.6,1.04,2.44,1.12,4.45,3.26,8.16,7.33,10.54,1.53.89,3.17,1.42,4.86,1.83.75.18,1.47.35,1.67,1.24h0Z"/>
  <path class="cls-5" d="m65.02,308.15v-11.94c1.78-2.64,4.09-4.79,6.4-6.94,3.13-2.92,6.28-5.8,9.19-8.94,1.57-1.7,3.46-3.04,5.04-4.7,3.63-3.81,7.48-7.4,11.23-11.05,3.73-3.62,7.55-7.14,11.22-10.82,2.84-2.84,5.91-5.46,8.71-8.35,2.15-2.21,4.57-4.19,6.68-6.47,2.39-2.6,5.38-4.59,7.5-7.46.86-1.16,2.15-1.88,3.15-2.9,3.94-3.95,7.94-7.84,11.94-11.71,2.63-2.53,5.11-5.22,7.88-7.62,2.81-2.43,5.3-5.21,8-7.76,3.64-3.44,7.01-7.19,10.76-10.49,2.97-2.61,5.37-5.78,8.56-8.17,2.42-1.81,4.17-4.39,6.49-6.38,4.09-3.51,7.57-7.68,11.77-11.07.45-.36.82-.75,1.45-.72,4.26.01,8.52-.09,12.76.05,1.11.4,1.08,1.22.75,2.1-.33.89-1.02,1.49-1.71,2.12-2.82,2.53-5.58,5.12-8.2,7.88-.9.57-1.92.4-2.9.42-2.35.06-4.7-.03-7.05.37-6.63,1.12-11.94,7.21-12.07,13.9-.04,1.74.19,3.45.18,5.19-1.22,2.5-3.55,4.03-5.31,6.05-2.48,2.86-5.73,4.93-8.03,7.95-.5.66-1.21,1.04-1.83,1.56-2.9,2.42-5.19,5.46-8.11,7.85-1,.59-2.16.45-3.24.67-6.76,1.36-11.2,5.97-12.19,12.74-.06.57-.31,1.07-.62,1.54-3.44,3.98-7.26,7.55-11.04,11.2-3.11,3-6.27,5.94-9.28,9.06-2.92,3.01-6.01,5.85-9.05,8.74-.5.48-.8,1.08-1.26,1.56-1.43.68-3.02.46-4.53.77-6.24,1.29-11.07,6.37-11.89,12.7-.09.73-.09,1.51-.81,1.98-2.19.78-3.63,2.6-5.12,4.14-3.29,3.37-6.76,6.55-10.1,9.84-4.36,4.31-8.92,8.45-13.37,12.67-.54.51-1.17.99-1.97.36v.08Z"/>
  <path class="cls-1" d="m65.02,276.44v-14.55c3.06-3.65,6.5-6.91,10.2-9.88.64-.51,1.02-1.25,1.58-1.83,3.63-3.63,7.46-7.04,11.04-10.69,2.63-2.68,5.65-4.97,7.89-8.04.88-1.2,2.06-2.17,3.18-3.08,2.1-1.69,3.63-3.92,5.64-5.56,2.7-2.2,4.93-4.86,7.59-7.06,1.39-1.16,2.59-2.47,3.8-3.81,2.24-2.48,5.02-4.44,7.23-6.96,2.37-2.69,5.56-4.54,7.66-7.51.68-.97,1.71-1.62,2.61-2.37,4.08-3.35,7.5-7.35,11.38-10.89,2.53-2.32,4.58-5.12,7.21-7.23,4.25-3.42,7.33-8.04,11.92-11.08.55-.36.68-1.22,1.47-1.36,4.4-.4,8.78-.05,13.15.21,1.24.84,1.36,1.49.49,2.65-.91,1.21-2.24,1.96-3.29,3.01-3.33,3.32-6.65,6.65-10,9.96-4.05,4-8.35,7.76-12.42,11.75-5.8,5.66-11.63,11.3-17.45,16.95-3.64,3.53-7.45,6.92-11.01,10.51-4.81,4.84-9.81,9.48-14.62,14.32-2.21,2.23-4.58,4.35-6.79,6.56-2.57,2.57-5.44,4.86-7.8,7.67-1.26,1.51-2.66,2.93-4.35,4.03-1.43.93-2.25,2.46-3.49,3.6-2.53,2.34-4.95,4.81-7.49,7.15-2.37,2.2-4.48,4.66-6.88,6.81-2.12,1.9-4.08,3.98-6.06,6.04-.62.64-1.29,1.48-2.38.72v-.03Z"/>
  <path class="cls-43" d="m65.02,276.44c.8-.14,1.26-.77,1.78-1.29,3.86-3.85,7.68-7.73,11.57-11.56,3.22-3.17,6.49-6.25,9.73-9.38,4.17-4.01,8.36-7.99,12.49-12.04,3.87-3.78,7.58-7.76,11.56-11.43,2.6-2.39,5.16-4.85,7.64-7.33,3.02-3.01,6.13-5.96,9.17-8.94,4.86-4.76,9.83-9.41,14.77-14.09.94-.89,1.76-1.89,2.7-2.79,3.85-3.65,7.68-7.32,11.56-10.95,4.56-4.26,9.05-8.61,13.38-13.09,1.9-1.96,3.87-3.81,5.91-5.6.81-.72,1.84-1.36,1.81-2.68.45-.69,1.18-.58,1.84-.58,3.27,0,6.54-.06,9.81.04,1.04.21,1.06.9.77,1.7-.28.77-.76,1.45-1.39,1.96-2.72,2.16-4.98,4.8-7.54,7.14-3.83,3.51-7.59,7.13-11.25,10.83-3.87,3.92-7.89,7.71-11.89,11.5-3.18,3.02-6.34,6.07-9.46,9.16-2.77,2.74-5.69,5.34-8.26,8.3-1.36,1.57-3.17,2.77-4.59,4.31-3.92,4.22-8.42,7.84-12.44,11.95-3.72,3.8-7.67,7.4-11.5,11.09-5.94,5.71-11.88,11.44-17.74,17.24-2.91,2.87-5.78,5.78-8.74,8.61-4.7,4.48-9.54,8.83-14.01,13.52-1.51,1.57-3.05,3.09-4.67,4.53-.78.71-1.61,1.92-3.02,1.06v-11.2h.03Z"/>
  <path class="cls-16" d="m124.66,297.42c-2.44,3.17-5.61,5.6-8.39,8.4-2.65,2.68-5.52,5.13-8.02,7.98-1.71,1.94-3.81,3.53-5.61,5.39-7.4,7.6-15.21,14.79-22.78,22.21-3.64,3.58-7.18,7.32-11.25,10.5-1.27.99-1.63,3-3.6,3.27v-30.21c2.96-2.37,5.43-5.29,8.34-7.67,2.93-2.41,5.01-5.66,8.16-7.8,1.06-.72,1.65-1.87,2.56-2.7,3.69-3.38,7.18-7,10.91-10.33.88-.78,1.7-1.63,2.48-2.52.73-.81,1.39-1.8,2.66-1.85,1.44.15,2.28,1.38,3.45,2.02,2.14,1.18,4.32,2.01,6.78,2.08,4.01.85,8.08.54,12.13.6.76,0,1.63-.23,2.16.63h0Z"/>
  <path class="cls-39" d="m85.81,420.18c1.35-2.29,3.55-3.78,5.37-5.62,4.53-4.58,9.26-8.96,13.87-13.46,3.27-3.19,6.58-6.36,9.74-9.64,3.14-3.26,6.49-6.31,9.74-9.45,2.23-2.15,4.5-4.25,6.72-6.41,3.05-2.99,6.14-5.92,9.28-8.8,2.91-2.66,5.49-5.69,8.38-8.38,2.39-2.24,4.7-4.57,7.05-6.85,2.74-2.65,5.58-5.2,8.18-8,1.63-1.76,3.37-3.27,6.22-3.02,3.4.3,6.83.08,10.26.09.41.41.51.97.13,1.34-.82.77-1.25,1.85-2.07,2.6-2.1,1.92-4.16,3.86-6.13,5.88-2.1,2.15-4.25,4.25-6.47,6.23-2.75,2.46-5.25,5.17-8,7.64-2.7,2.42-5.29,5.03-7.84,7.66-3.31,3.41-7,6.43-10.23,9.91-3.15,3.41-6.86,6.22-10.02,9.61-.99,1.06-1.63,2.57-3.37,2.7-.69-.03-1.24-.41-1.76-.8.46.35,1.06.6,1.04,1.34-.94,2.39-2.95,3.87-4.75,5.52-.4.3-.77.62-1.06,1.03-2.81,3.14-6.13,5.75-8.92,8.92-.42.48-.98.76-1.63.78-.36-.04-.78-.19-.77.45-.9,2.37-2.99,3.6-4.8,5.1-.42,0-.97.13-1.24-.19-1.07-1.22-1.94-.44-2.86.19,1.85-1.04,2.16-.97,2.86.66-1.11,2.08-2.55,3.86-4.76,4.88-1.71-1.07-2.87-.26-4.1,1-.86.89-.68,1.74-.54,2.69-.06.5-.27.91-.78,1.09-2.46-2.02-4.75-4.19-6.74-6.68h.03Z"/>
  <path class="cls-43" d="m65.02,287.64c2.38-1.07,4.03-3.08,5.83-4.84,1.96-1.9,3.68-4.03,5.89-5.67,1.4-1.04,2.3-2.56,3.62-3.72,3.19-2.81,6.23-5.79,9.26-8.78,3.85-3.78,7.5-7.77,11.49-11.4,5.66-5.17,10.87-10.81,16.64-15.9,3.77-3.33,7.12-7.24,10.83-10.69,2.81-2.6,5.53-5.28,8.33-7.9,3.78-3.55,7.28-7.4,11.12-10.89,2.84-2.59,5.43-5.4,8.29-7.97,2.47-2.23,4.74-4.72,7.24-6.94,3.01-2.66,5.66-5.69,8.61-8.44,2.34-2.19,4.53-4.56,6.92-6.73,3.56-3.24,7.01-6.6,10.47-9.96.75-.72,1.27-1.67,1.9-2.51.3-.48.77-.57,1.27-.58,2.14-.05,4.27-.05,6.41,0,.5,0,.98.1,1.27.58-1.57,1.85-3.44,3.4-5.15,5.1-2.15,2.14-4.19,4.4-6.54,6.33-3.05,2.52-5.28,5.92-8.65,8.11-1.13.73-1.71,2.07-2.7,3.04-3.85,3.73-7.79,7.36-11.53,11.21-2.01,2.07-4.04,4.22-6.42,5.93-1.79,1.29-2.88,3.22-4.49,4.71-5.21,4.84-10.31,9.81-15.43,14.75-4.18,4.04-8.48,7.98-12.48,12.19-3.5,3.68-7.22,7.13-10.85,10.67-3.22,3.15-6.64,6.11-9.77,9.37-3.94,4.1-8.22,7.84-12.28,11.83-3.41,3.37-6.79,6.81-10.38,10.04-3.63,3.26-6.88,6.97-10.53,10.23-2.23,1.99-3.99,4.43-6.36,6.24-.58.45-1.06,1.07-1.85,1.21v-8.58h-.01Z"/>
  <path class="cls-42" d="m145.61,333.12c-4.97,5.53-10.65,10.32-15.87,15.6-6.45,6.51-13.05,12.88-19.67,19.2-5.58,5.33-11.09,10.76-16.79,15.99-3.2,2.93-6.24,6.16-9.37,9.2-2.9,2.82-5.35,6.22-8.93,8.34-.55.33-.98.77-1.08,1.44-1.99-3.37-3.53-6.92-4.53-10.72.17-1.57,1.49-2.33,2.44-3.28,2.24-2.23,4.49-4.47,6.86-6.54,3.82-3.35,6.9-7.49,11.09-10.44.9-.64,1.6-1.57,2.26-2.46.9-1.21,1.92-2.29,3.22-3.06,1.36-.82,2.17-2.2,3.31-3.24,4.45-4.13,8.83-8.35,13.07-12.67,3.33-3.4,6.81-6.67,10.15-10.06,3.55-3.62,7.41-6.95,11.05-10.5,2.39-2.34,4.81-4.66,7.22-6.97.82-.8,1.74-1.97,3.19-.94.3.62.54,1.25.66,1.93.05.19.06.39.05.58-.06.73.03,1.47.15,2.19.26,1.6.86,3.08,1.47,4.56.26.63.62,1.24.03,1.87h.01Z"/>
  <path class="cls-42" d="m142.93,321.95c-3.27,1.99-5.62,4.99-8.38,7.54-3.82,3.53-7.53,7.18-11.35,10.72-2.48,2.3-4.85,4.77-7.27,7.15-3.36,3.28-6.79,6.49-10.02,9.9-2.46,2.6-5.35,4.76-7.62,7.55-.5.62-1.06,1.27-1.72,1.69-1.71,1.07-3.11,2.42-4.32,4.04-1.67,2.25-4.19,3.64-6.11,5.66-2.47,2.6-5.03,5.1-7.59,7.6-1.9,1.87-3.83,3.71-5.84,5.46-1.11.97-1.85,2.35-3.32,2.92-1.04-2.53-1.92-5.11-2.23-7.84.62-2.17,2.41-3.49,3.95-4.83,3.29-2.84,6.14-6.14,9.33-9.07,4.01-3.68,7.76-7.64,11.86-11.23,3.44-3.01,6.43-6.51,9.79-9.61,5.26-4.89,10.31-10.01,15.48-14.99,2.47-2.38,5.19-4.58,7.3-7.37.77-1.02,1.9-1.76,2.91-2.6,3.36-2.83,6.42-6.01,9.54-9.08,2.44-2.41,4.95-4.8,7.32-7.32,2.59-2.75,5.43-5.26,8.25-7.8.99-.89,1.81-1.83,2.38-3.02.36-.67,1-.63,1.61-.63,3.26,0,6.51-.08,9.77.04,1.33.46,1.04,1.35.48,2.19-.48.72-1.17,1.25-1.85,1.79-2.42,1.89-4.36,4.31-6.7,6.31-.5.42-.88,1.03-1.09,1.69-.45.57-1.08.76-1.76.9-5.47,1.17-9.08,4.47-11.03,9.68-.33.9-.33,1.98-1.2,2.65-.19.09-.36.06-.53-.08h-.01Z"/>
  <path class="cls-39" d="m103.76,415.98c1.34-1.76,3.36-2.9,4.48-4.85.19-.51.75-.5,1.12-.75,1.6-.37,2.26-1.92,3.24-2.92,2.23-2.32,4.86-4.22,6.83-6.78.28-.46.66-.84,1.12-1.12,1.93-1.3,3.19-3.27,4.85-4.85.26-.49.63-.86,1.12-1.12.81-.36,1.4-.95,1.98-1.62,2.52-2.9,5.26-5.58,8.31-7.93,1.12-.86,1.74-2.06,2.74-3,4.72-4.44,9.29-9.05,13.99-13.5,2.91-2.75,5.85-5.47,8.67-8.29,1.48-1.48,2.95-3.28,4.49-4.49,2.83-2.2,4.8-5.21,7.73-7.27,1.71-1.2,3.08-2.99,4.35-4.68.58-.77,1.89-.9,1.84-2.16h11.2c-.99,2.16-3.06,3.4-4.68,4.93-1.66,1.57-3.05,3.42-4.88,4.8-3.04,2.26-5.31,5.3-8.07,7.86-2.87,2.68-5.66,5.47-8.45,8.25-4.04,4-8.42,7.69-12.34,11.8-3.99,4.17-8.26,8.03-12.4,12.02-2.52,2.42-5.19,4.79-7.51,7.33-3.23,3.51-7.3,6.15-10.15,10.02-.5.68-1.31,1.13-1.93,1.74-5.8,5.56-11.62,11.12-17.4,16.72-1.87,1.8-3.63,3.69-5.44,5.55-2.19-1.35-4.17-2.96-5.98-4.79.01-.42.09-.84.39-1.17,1.04-2.06,2.81-3.26,4.85-4.1l4.48-4.48c.24-.72.9-.88,1.49-1.12l-.03-.03Z"/>
  <path class="cls-1" d="m164.95,165.28c-.1.57-.35,1.04-.78,1.44-2.21,2.05-4.49,4.01-6.6,6.2-4.53,4.7-9.5,8.98-14.03,13.69-2.44,2.53-5.26,4.68-7.4,7.53-.66.89-1.85,1.18-2.68,1.98-4.39,4.34-8.83,8.62-13.25,12.92-4.21,4.09-8.16,8.52-12.61,12.29-2.86,2.42-5.34,5.21-8.06,7.71-3.47,3.19-7.08,6.4-10.01,10.2-.97,1.25-2.39,2.14-3.62,3.19-.37.32-.85.57-1.13.95-2.43,3.22-5.67,5.66-8.47,8.52-2.44,2.51-4.86,5.21-7.86,7.21-.4.26-.75.68-.97,1.11-.53,1.06-1.3,1.63-2.48,1.67v-8.21c2.88-1.38,4.61-4.08,6.94-6.09,5.34-4.61,9.95-10,15.29-14.63,4.32-3.74,8.44-7.76,12.29-11.98,2.46-2.69,5.17-5.1,7.68-7.71,2.46-2.55,5.12-4.98,7.8-7.33,1.85-1.63,3.5-3.51,5.31-5.2,5.39-5.02,10.59-10.23,15.85-15.38,3.27-3.18,6.64-6.29,9.77-9.65,2.21-2.37,4.65-4.62,7.09-6.81,1.15-1.03,2.56-1.94,2.96-3.63.12-.22.26-.49.48-.54,2.66-.58,5.33-.58,7.99,0,.23.05.36.32.48.54h.03Z"/>
  <path class="cls-26" d="m126.9,67.18c.19.41.32.81-.09,1.18-4.21,3.91-8.11,8.15-12.4,11.95-2.91,2.59-5.4,5.62-8.39,8.12-3.28,2.75-6.27,5.83-9.24,8.83-5.03,5.07-10.4,9.78-15.36,14.91-3.5,3.63-7,7.31-10.89,10.56-.99.82-1.75,1.92-2.91,2.56,4.47-17.29,13.81-31.45,27.63-42.67,9.1-7.39,19.38-12.43,30.74-15.31.3-.08.6-.1.91-.14Z"/>
  <path class="cls-56" d="m99.9,292.49c-2.56,3.19-5.85,5.66-8.62,8.62-2.74,2.93-5.75,5.57-8.61,8.36-5.1,4.98-10.18,10-15.4,14.85-.67.62-1.26,1.25-2.25.63v-16.81c1.17-.22,1.63-1.29,2.38-1.99,4.86-4.59,9.73-9.17,14.51-13.85,3.89-3.8,7.72-7.67,11.83-11.25.45-.4.95-1.26,1.49-.05.26.14.45.33.58.59.24.59.42,1.21.54,1.84.57,2.66,1.52,5.16,3.27,7.3.41.5.94,1.04.3,1.75h-.01Z"/>
  <path class="cls-51" d="m140.21,446.61c1.78.08,3.58-.35,5.33.27-1.78.01-3.58.21-5.33-.27Z"/>
  <path class="cls-51" d="m136.13,446.23c.67-.03,1.34-.12,1.94.28-.67.08-1.33.04-1.94-.28Z"/>
  <path class="cls-4" d="m356.01,373.08c-2.34,5.62-6.55,9.01-12.43,10.4h-32.76c-6.16-.3-9.96-3.96-12.2-9.21-2.46-5.76-1.72-11.4,1.99-16.59,2.84-3.96,6.87-5.71,11.52-6.41,9.95.51,19.91.32,29.87.37.19,0,.36.06.54.12.48.04.97.08,1.44.12,7.39.53,11.22,5.15,13.25,11.7.73,2.34.41,4.81.18,7.22-.09.91-.54,1.79-1.4,2.32v-.03Z"/>
  <path class="cls-21" d="m344.8,340.27c-12.56,0-25.13-.03-37.69-.04-.33-.67-.05-1.22.41-1.67,1.47-1.43,2.63-3.13,4.23-4.44,1.63-1.33,3.09-2.84,4.43-4.5,1.12-1.39,2.87-2.14,4.05-3.53,3.89-4.59,8.72-8.26,12.75-12.71.78-.88,1.99-1.27,2.64-2.33.48-.77.53-1.29-.6-1.29h-1.49c-9.88,0-19.77-.01-29.65.01-2.1,0-4.19-.48-6.29-.13-.44-.13-.78-.35-.94-.8.26-.12.5-.23.76-.35h28.36c5.52,0,11.05.04,16.57.03,6.11-.01,11.14,2.1,14.59,7.35.13.21.35.35.53.53,1.9,3.91,2.55,8,1.43,12.25-1.7,6.46-7.5,11.22-14.09,11.61h0Z"/>
  <path class="cls-25" d="m290.32,340.68c12.8-.01,25.62-.04,38.42-.05-1.45,2.23-3.17,4.22-5.19,5.98-1.6,1.38-3.58,2.48-4.13,4.79-.19.17-.42.22-.68.23-12.21.41-24.42.42-36.63.36-.67,0-1.39.09-1.85-.59,2.26-2.74,4.92-5.11,7.54-7.48,1.03-.93,2.37-1.62,2.53-3.24h-.01Z"/>
  <path class="cls-31" d="m356.01,373.08c1.87-6.73.66-12.65-4.63-17.49-2.12-1.94-4.72-2.92-7.4-3.74h34.01c.04.91-.49,1.54-1.15,2.02-3.51,2.55-6.14,6.04-9.35,8.89-2.11,1.88-3.78,4.18-5.97,5.92-1.56,1.24-3.09,2.43-4.31,3.99-.22.27-.78.27-1.2.4h0Z"/>
  <path class="cls-28" d="m280.26,351.4h39.18c6.92,0,13.83.03,20.76.04.8,0,1.61-.14,2.35.31-9.21,0-18.41,0-27.63.03-1.11,0-2.23.05-3.33.08-3.73.68-7.48.9-11.26.88-11.66-.06-23.32,0-34.97-.05-1.16,0-2.53.41-3.38-.91.75-.44,1.56-.3,2.35-.3,5.31-.03,10.63-.03,15.94-.04v-.03Z"/>
  <path class="cls-29" d="m164.95,165.28h-8.96c-8.45,0-16.92-.01-25.38-.03-3.94-.62-7.53-1.97-10.32-4.95-2.91-3.11-4.54-6.78-4.62-11.09.03-3.06.8-5.94,2.48-8.49,3.08-4.65,7.41-7.18,13.02-7.44.31-.01.62-.08.93-.12h133.59c.57.01,1.15.04,1.71.05.23.17.24.36.06.58-1.07.91-2.37.59-3.58.59-15.04.03-30.1.01-45.14.01-12.19,0-24.37.1-36.56-.04-6.77-.08-13.11,5.22-14.5,11.03-1.67,7,1.34,13.92,7.59,17.24,2.03,1.08,4.22,1.38,6.5,1.38,20.58-.01,41.16,0,61.74,0,7.15,0,14.3-.03,21.45.03,1.02,0,2.15-.24,2.97.71.13.23.13.46,0,.68-.51.68-1.29.66-2.01.67-2.08.05-4.16.1-6.24-.01-8.63.1-17.27.05-25.89.05-.44,0-.88.08-1.3-.05-5.06.06-10.11.09-15.17.04-1.09,0-2.26.17-3.1-.81h-22.76c-4.1,0-8.21,0-12.31-.01h-14.22Z"/>
  <path class="cls-45" d="m296.64,308.84c.32.04.66.06.98.1,7.05,1.2,11.97,7.18,12.22,14.44.24,6.47-2.29,11.39-7.48,15.08-1.85,1.33-4.05,1.38-6.19,1.72-22.8.04-45.6.09-68.41.1-7.27,0-14.54-.06-21.8-.1-7.97-1.16-13.04-7.21-13.19-15.35-.1-6.02,2.29-10.65,7.08-14.17,2.33-1.7,5.08-2.17,7.81-2.72,26.51-.01,53.02-.01,79.52.03,2.15,0,4.3.39,6.45.46.99.13,1.98.26,2.97.37l.03.03Z"/>
  <path class="cls-47" d="m358.6,230.18c1.39,4.98,1.18,9.79-1.72,14.23-1.88,2.86-4.48,4.92-7.6,6.28-1.94,1.16-4.05,1.9-6.31,1.94-3.9.06-7.8.14-11.7-.08-6.92.26-13.85.05-20.77.12-1.36,0-2.72,0-4.08.05-2.69-.31-5.38.09-8.06-.06-1.03-.06-2.1.18-3.02-.49-.18-.17-.27-.39-.28-.63.21-.64.76-.81,1.31-.99,8.53.05,17.08-.06,25.61.04,2.47.03,4.05-1.38,5.64-2.83,2.26-2.1,4.21-4.52,6.58-6.55,5.38-4.65,10.02-10.05,15.4-14.7,1.29-1.12,2.14-2.78,4.01-3.13,2.11.23,5.04,3.6,4.95,5.7-.01.36-.26.72.05,1.06v.04Z"/>
  <path class="cls-47" d="m308.54,290.97c-1.98,1.79-3.76,3.83-6.31,4.89-1.31,1.07-2.7,1.96-4.45,2.08-5.06-.78-10.13-.41-15.2-.17-1.12.05-2.23.1-3.33-.13-1.03-.48-1.15-1.31-.64-2.16.66-1.11,1.34-2.25,2.48-2.96,1.24-.76,2.37-1.66,3.18-2.83,1.58-2.29,3.96-3.73,5.83-5.7,3.32-3.53,6.99-6.68,10.37-10.13,1.7-1.74,3.44-3.41,5.44-4.77,2.19-.26,2.7,1.72,3.8,2.91.49.51.66,1.3,1.12,1.88,1.75,3.19,1.75,6.65,1.54,10.15-.06,1.12-1.02,1.66-1.51,2.5l-.81,2.2c-.41.82-.53,1.84-1.52,2.28v-.04Z"/>
  <path class="cls-28" d="m310.87,286.49c1.39-4.32.82-8.52-.81-12.64-.21-.77.17-1.29.71-1.76,4.9-4.26,9.26-9.07,13.99-13.51,2.3-2.16,4.56-4.35,6.59-6.77,4.76-.19,9.54.33,14.28-.36,1.22-.18,2.42-.49,3.63-.75-.06.1-.12.24-.21.31-3.19,1.84-5.61,4.68-7.89,7.33-2.59,3.02-6.09,4.92-8.47,8.16-1.8,2.44-4.72,4.03-6.72,6.36-2.33,2.72-5.69,4.27-7.66,7.36-.85,1.33-2.07,2.47-3.55,3.24-1.49.77-2.12,2.64-3.9,3.06v-.04Z"/>
  <path class="cls-12" d="m358.6,230.18c-1.24-2.41-2.43-4.85-4.81-6.41-.69-.03-1.36-.14-1.93-.54-1.75-1.24-3.76-1.83-5.82-2.32-.63-.12-1.26-.13-1.89-.22-.85-.23-1.81,0-2.59-.55-.91-1.27,0-2.19.81-2.83,3.32-2.66,5.98-6,9.1-8.85.3-.27.6-.41.98-.45,5.52-.09,11.05.12,16.57-.12,2.84-.12,5.69-.31,8.54-.21.84.03,1.79-.1,2.3.85-4.08,4.88-8.67,9.29-13.45,13.45-2.66,2.32-4.88,5.01-7.42,7.37-.21.19-.27.54-.4.81h0Z"/>
  <path class="cls-47" d="m379.87,208.54h-27.99c-.72.71-1.63.84-2.59.85-4.35.03-8.69.05-13.04-.01-.78,0-1.65.05-2.24-.67-.28-1.13.64-1.16,1.3-1.44,2.88.59,5.79-.18,8.67.05,1.29.42,2.59-.03,3.87-.01,6.14.04,12.29-.01,18.43.04,1.74.01,3.08-.58,4.32-1.76,3.87-3.65,7.64-7.42,11.56-11.03,2.35-2.17,4.45-4.65,7.09-6.54,1.18-.86,2.14-2.06,3.05-3.24.63-.81,1.25-1.76,2.51-1.65,1.58,1.42,2.02,3.49,2.91,5.29.45,2.84.62,5.66-.23,8.48-2.05,6.82-8.07,11.47-15.22,11.63-.81.03-1.62.03-2.42.03h.01Z"/>
  <path class="cls-42" d="m293.67,308.46c-.75.01-1.49.05-2.23.05h-81.92c-.81,0-1.61.04-2.42.06-4.22.76-8.48.88-12.75.85-11.27-.06-22.56,0-33.83-.05-1.17,0-2.53.4-3.4-.89.03-1.15.66-1.96,1.47-2.69,2.57-2.32,5.12-4.66,7.68-6.99.41-.37.81-.78.93-1.36.26-.51.73-.64,1.24-.64,4.36.04,8.71-.23,13.06.14,1.13.9.48,1.69-.13,2.52-1.62,2.2-3.55,4.09-5.65,5.83-.46.39-1.17.76-.93,1.45.24.75,1.06.51,1.63.51,7.63.03,15.26,0,22.89.03.75,0,1.49-.05,2.23.15,8.09-.31,16.17-.18,24.27-.09,1.97.22,3.94-.13,5.91-.1,5.74.1,11.48-.06,17.22.08,3.89-.05,7.77-.06,11.66-.06,4.45,0,8.9.03,13.36-.03.66.18,1.3.26,2.01.19,3.95-.32,7.91-.15,11.88-.1.69,0,1.36.13,1.78.81,1.36.14,2.77-.28,4.09.32h-.04Z"/>
  <path class="cls-28" d="m289.58,308.15h-15.67c-.41-.86.12-1.42.66-1.94,1.92-1.93,3.78-3.89,5.89-5.61.28-.23.67-.41.82-.73,1.24-2.55,3.41-2.81,5.92-2.74,3.64.08,7.3.23,10.92-.1,1.38-.37,2.74-.76,4.12-1.13-1.18,2.01-3.18,3.23-4.8,4.81-1.76,1.72-3.72,3.26-5.16,5.28-.72,1-2.05,1.17-2.72,2.19h.01Z"/>
  <path class="cls-28" d="m308.54,290.97c.49-.77.77-1.69,1.52-2.28.06,1.15-.19,2.07-1.52,2.28Z"/>
  <path class="cls-42" d="m392.26,69.32c5.94,1.79,11.49,4.47,16.66,7.89-.04.84-.64,1.33-1.17,1.84-3.55,3.46-7.06,6.96-10.64,10.4-2.95,2.82-5.85,5.7-8.81,8.48-3.85,3.6-7.44,7.45-11.32,11.01-2.48,2.28-5.21,4.4-7.21,7.23-.89,1.27-2.29,2.07-3.45,3.11-3.74,3.35-7.18,7-10.8,10.47-4.95,4.76-9.9,9.52-14.82,14.28-2.08,2.02-4.22,4-6.27,6.06-.68.68-1.36,1.54-2.56.99-.68-.63-.55-1.47-.59-2.26-.18-4.53-2.05-8.22-5.49-11.13-.63-.53-1.26-1.03-1.12-1.97.19-.81.6-1.6,1.22-2.05,2.74-2.01,4.65-4.93,7.45-6.86.45-.31.85-.73,1.22-1.15,5.03-5.74,11.17-10.35,16.3-15.94,2.37-2.59,5.01-4.93,7.46-7.39,2.63-2.64,5.22-5.42,8.13-7.82,2.55-2.11,4.72-4.7,7.15-6.96,2.61-2.43,4.89-5.24,7.76-7.4.68-.51,1.33-1.13,1.85-1.81,2.65-3.38,6.29-5.75,9.05-9.03h-.01Z"/>
  <path class="cls-11" d="m267.85,165.19c.04-.09.09-.19.14-.28.19-.73.86-.85,1.44-1.02,6.52-1.94,10.35-6.28,11.5-12.98.53-3.73,2.41-6.51,5.34-8.93,2.95-2.42,5.48-5.34,8.26-7.98.39-.36.68-.69,1.25-.64h20.1c.67,0,1.36-.13,2.02.14,1.12.27,2.25.54,3.37.81.55.82.28,1.58-.31,2.2-2.26,2.35-4.72,4.53-7,6.86-2.32,2.39-5.11,4.27-7.15,6.97-1.38,1.8-3.4,3.02-5.02,4.65-2.66,2.65-5.24,5.39-8.04,7.91-1.76,1.6-3.87,2.3-5.97,3.17-5.83.15-11.66.08-17.47.04-.89,0-1.92.15-2.44-.9h-.01Z"/>
  <path class="cls-7" d="m288.44,165.2c4.62-1.92,7.6-5.78,10.98-9.2,1.38-1.4,2.84-2.73,4.32-4.04,1.2-1.07,2.33-2.2,3.47-3.33,3.5-3.47,7.22-6.72,10.73-10.18,1.25-1.22,2.75-2.33,3.33-4.13,1.24.19,2.24.99,3.37,1.43,5.38,3.69,7.88,8.8,7.5,15.31,1,.82.5,1.85.24,2.74-1.44,5.1-4.62,8.71-9.48,10.86-.37.03-.78-.03-1.11.14-3.1,1.72-6.5,1.31-9.82,1.33-5.76.04-11.53-.05-17.29.06-1.33-.48-2.68.09-4-.08-.82-.1-1.76.08-2.25-.9h0Z"/>
  <path class="cls-56" d="m317.91,133.49c-7.58.03-15.16.04-22.74.06-.6.78-1.49.85-2.37.84-6.76-.09-13.52.36-20.28-.27-1.03-.09-1.93.41-2.93.42-.76-.15-1.54-.23-1.96-1.04-.08-.09-.15-.19-.23-.28,9.51-.01,19.01-.04,28.52-.05h19.64c.8,0,1.62-.15,2.34.32h.01Z"/>
  <path class="cls-14" d="m391.04,351.78h-2.23v-.33c.75.04,1.54-.14,2.23.35h0Z"/>
  <path class="cls-33" d="m323.15,163.76c5.06-2.78,8.16-6.95,8.99-12.7,4.94-4.39,9.56-9.12,14.31-13.72,3.62-3.51,7.28-7.03,10.83-10.63,3.49-3.55,7.15-7,10.92-10.32,2.57-2.25,4.93-4.85,7.33-7.33.94-.98,2.02-1.83,3-2.77,5.26-5.04,10.32-10.29,15.75-15.18,4.4-3.98,8.48-8.33,12.7-12.49.57-.55,1.04-1.26,1.92-1.4,6.56,3.89,12.31,8.75,17.29,14.5-1.62,1.61-3.51,2.87-5.12,4.5-3.49,3.53-7.17,6.85-10.69,10.33-4.54,4.49-9.11,8.96-13.76,13.33-4.19,3.95-8.21,8.08-12.37,12.07-3.22,3.09-6.51,6.1-9.72,9.19-2.9,2.78-5.94,5.43-8.58,8.48-1.62,1.88-3.63,3.36-5.34,5.15-3.5,3.67-7.15,7.21-10.91,10.6-2.86,2.57-5.2,5.66-8.27,8.02-.67.51-1.31,1.13-1.63,1.98.66.4,1.29.23,1.89.23,5.97.01,11.93,0,17.9,0,.99,0,1.98.03,2.97.19,4.29-.42,8.57-.19,12.87-.17,2.33.04,4.67-.18,7,0,.82.06,1.81-.01,1.93,1.22-.49.85-1.35.78-2.14.81-2.66.05-5.31.14-7.98-.1-11.14.32-22.3.1-33.46.1-1.6,0-3.19-.44-4.76.18-.73-.05-1.47-.18-2.2-.19-7.58-1.26-15.22-.33-22.83-.69-1.48-.58-1.02-1.58-.31-2.32,2.93-3.06,5.97-6.01,9.12-8.85.97-.88,2.3-1.18,3.31-2.02h.01Z"/>
  <path class="cls-39" d="m361.96,176.43h-21.82c-.54,0-1.26.26-1.57-.27-.39-.66.35-1.12.66-1.61,1.03-1.6,2.65-2.59,3.96-3.9,4.56-4.54,9.3-8.9,13.81-13.49,3.46-3.53,7.03-6.96,10.51-10.45,3.67-3.65,7.37-7.31,11.27-10.76,2.59-2.29,5.01-4.76,7.49-7.17,3.68-3.56,7.36-7.14,11.03-10.73,4.34-4.25,8.58-8.6,13.02-12.75,2.3-2.16,4.56-4.39,6.9-6.51,1.87-1.7,3.67-3.5,5.47-5.29.98-.98,2.02-1.87,3.54-1.81,3.76,3.95,6.99,8.3,9.59,13.1-.15,1.06-1.11,1.43-1.75,2.07-3.62,3.65-7.31,7.22-11.01,10.77-2.25,2.16-4.57,4.3-6.78,6.5-2.53,2.52-5.13,4.98-7.79,7.37-3.44,3.1-6.6,6.5-9.96,9.69-3.2,3.06-6.52,6.06-9.54,9.34-1.67,1.81-3.63,3.38-5.35,5.16-2.57,2.66-5.52,4.94-7.86,7.82-.8.98-1.9,1.58-2.77,2.47-3,3.11-6.13,6.11-9.2,9.16-.54.54-1.33.68-1.84,1.25v.03Z"/>
  <path class="cls-17" d="m361.96,176.43c1.35-2.93,4.3-4.39,6.24-6.77,2.33-2.87,5.56-4.85,7.72-7.9.84-1.2,2.24-1.88,3.31-2.93,5.07-5.06,10.41-9.84,15.42-14.97,2.97-3.04,6.02-6.05,9.08-8.96,2.92-2.78,5.6-5.89,8.98-8.26,1.35-.94,2.32-2.65,3.64-3.86,2.79-2.55,5.55-5.15,8.26-7.79,2.81-2.7,5.55-5.47,8.31-8.22.84-.84,1.7-1.63,2.88-1.97,1.8,2.69,3.22,5.58,4.41,8.57-.73,1.47-1.88,2.68-3.08,3.68-4.18,3.5-7.89,7.49-11.81,11.25-1.48,1.43-2.97,2.99-4.45,4.4-2.44,2.33-4.71,4.85-7.32,7.03-1.49,1.25-2.66,2.93-4.25,4.12-2.65,1.98-4.61,4.66-7.03,6.85-4.22,3.81-8.12,7.97-12.29,11.8-3.91,3.6-7.36,7.67-11.49,11.04-1.08.88-1.85,2.15-3.1,2.88h-13.45Z"/>
  <path class="cls-17" d="m375.39,176.42c.26-1.52,1.38-2.63,2.38-3.45,4.41-3.58,8.2-7.81,12.24-11.74,2.9-2.82,6.25-5.24,8.62-8.63.68-.97,1.83-1.67,2.88-2.3,1.57-.95,2.42-2.56,3.6-3.83,1.49-1.58,3.38-2.66,4.81-4.31,2.48-2.87,5.49-5.2,8.04-8.04,1.17-1.31,2.56-2.56,3.9-3.77,2.9-2.64,5.56-5.52,8.39-8.2,2.96-2.78,5.92-5.58,8.97-8.27.27-.23.66-.33.99-.49.76,2.37,2.07,4.54,2.38,7.06-2.63,2.53-5.3,5.03-7.86,7.63-2.87,2.92-5.94,5.62-8.93,8.43-2.47,2.33-4.8,4.83-7.22,7.21-2.86,2.82-5.57,5.82-8.9,8.11-1.12.77-1.71,1.97-2.66,2.84-3.22,2.97-6.33,6.06-9.43,9.15-2.57,2.56-5.34,4.95-7.81,7.64-1.33,1.45-2.9,2.68-4.23,4.14-.33.37-.76.63-.84,1.17-.13.12-.24.1-.37,0-2.96-.75-5.97-.12-8.96-.35h.01Z"/>
  <path class="cls-10" d="m384.35,176.77c.13.01.24.01.37,0,3.38.78,6.47,2.15,8.93,4.68.48.49,1,.94,1.18,1.63-2.05,2.29-3.96,4.65-6.34,6.69-4.34,3.74-8.27,7.95-12.42,11.93-2.06,1.97-4.22,3.82-6.31,5.76-.77.72-1.69.67-2.63.67h-22.72c-.57-.66-.26-1.25.13-1.85.95-1.44,1.81-2.92,3.38-3.86,2.37-1.43,3.64-4.01,5.78-5.69,4.04-3.19,7.51-6.97,11.1-10.59,3.13-3.14,6.69-5.84,9.46-9.34,3.36,0,6.72-.03,10.08-.04h0Z"/>
  <path class="cls-27" d="m261.96,351.74c15.74,0,31.47.01,47.21.03.8,0,1.61.05,2.41.08-2.87.81-5.55,1.9-7.94,3.83-5.62,4.56-7.22,13.9-3.35,20.1,2.5,3.99,6.06,6.43,10.53,7.68-11.72.03-23.43.05-35.16.06-3.23,0-6.46-.13-9.68.03-4.76.23-9.07-.85-12.86-3.85-4.45-4.32-6.38-9.59-5.07-15.66,1.49-6.87,6.31-11.35,13.87-12.31h.03Z"/>
  <path class="cls-10" d="m181.74,297.45h-14.55c-3.98,0-7.95-.03-11.94-.03h-30.59c-4.19-.01-8.4-.03-12.6-.06-.8,0-1.61.12-2.35-.33.59-1.13,1.7-.9,2.64-.91,4.84-.08,9.68-.03,14.51-.04h24.93c1.96,0,3.94.67,5.87-.15,1.35.21,2.72.17,4.09.17,27.51,0,55.02-.08,82.52.06,5.88.03,10.29-2.19,13.81-6.67,2.86-1.29,4.31-4.1,6.52-6.1,1.33-1.2,2.78-2.23,3.94-3.63,2.48-2.99,5.88-5.08,8.21-8.25,1.18-1.61,3.23-2.32,4.36-4.01.17-.24.46-.42.45-.81-.6-.41-1.3-.21-1.94-.21-7.88-.01-15.75-.01-23.64,0-2.21,0-4.43-.53-6.64,0-.57-.18-1.12-.37-1.26-1.04.44-1.15,1.48-1.02,2.37-1.02,6.45-.05,12.89-.1,19.34.01,3.71,0,7.4-.09,11.1-.06,4.01.03,8.03-.04,12.04.04,1.93.35,3.9-.06,5.85.35,2.26.49,4.36,1.26,6.27,2.56.69.48,1.26,1.02.98,1.97-.04.57-.14,1.11-.67,1.47-3.54,2.37-5.98,5.92-9.24,8.57-3.17,2.59-5.49,6-8.92,8.36-1.7,1.17-2.59,3.46-4.4,4.68-1.18.8-2.2,1.72-3.04,2.87-.4.55-.89,1.03-1,1.75-.59.99-1.61.81-2.51.82-3.83.08-7.67.05-11.52.01-2.05-.03-4.05.59-6.1.23-6.45.22-12.89.14-19.34.15-1.18,0-2.35-.04-3.53-.22-8.18.37-16.38.28-24.56.06-9.02.31-18.04.09-27.06.13-.88,0-1.74-.06-2.41-.75h0Z"/>
  <path class="cls-48" d="m157.11,308.48c15.92,0,31.85.01,47.77.03.75,0,1.48.04,2.23.06-2.32.67-4.62,1.3-6.65,2.74-5.62,4-7.67,9.57-6.61,16.11,1.03,6.29,5.2,10.23,11.12,12.38.35.13.69.26,1.03.4-8.51.03-17.02.05-25.53.08-6.46,0-12.93-.18-19.38.06-6.49.23-11.62-1.99-15.47-7.21-1.06-2.01-1.96-4.08-2.35-6.33-.31-.77.06-1.62-.28-2.39v-.05c.35-.77-.04-1.63.28-2.41.66-6.36,5.97-12.11,12.42-13.1.49-.08.97-.24,1.44-.37h0Z"/>
  <path class="cls-24" d="m296.19,340.19c2.55-.81,5.03-1.74,7.13-3.49,9.29-7.75,7.03-22.49-4.18-27.09-.51-.21-1.02-.45-1.52-.67,13.04-.01,26.07-.03,39.11-.04.48,0,1.12-.21,1.34.35.28.69-.53.85-.86,1.24-3.33,3.82-7.22,7.06-10.82,10.59-4.97,4.86-9.79,9.88-15,14.5-1.56,1.39-2.86,3.09-4.27,4.63-3.64-.01-7.28-.03-10.92-.04h.01Z"/>
  <path class="cls-50" d="m310.46,176.41c6.88.03,13.77.04,20.65.09.98,0,1.99-.17,2.93.3-.33.76-1.04.8-1.72.85-1.06.08-2.11.05-3.17.05-26.79,0-53.58.1-80.36-.06-7.88-.05-14.44,5.01-15.54,13.09-1.25,9.1,6.32,16.61,13.72,16.6,27.1-.05,54.2-.03,81.3-.03,1.06,0,2.11-.04,3.17.09.75.09,1.53.19,1.47,1.26-1.38,1.22-3.01.67-4.57.64-1.98-.12-3.95.18-5.93.15-6.33-.09-12.67.04-19.02-.06-3.2,0-6.42.06-9.63.05-6.61-.04-13.22.06-19.83-.05-8.09.1-16.19-.03-24.28.1-1.53-.49-3.08-.04-4.61-.04-9.35,0-18.7-.1-28.05.04-1.09-.4-2.2-.08-3.29-.08-5.13,0-10.26.1-15.39-.04-2.78-.08-5.56-.4-8-1.94-3.73-1.56-6.02-4.58-7.97-7.94-.45-.77-.5-1.65-.23-2.51-.22-2.78-.66-5.55.08-8.33,2.02-7.67,7.71-11.85,15.27-12.13,2.35-.09,4.71-.06,7.06-.1.62-.76,1.49-.81,2.35-.82,5.06-.03,10.11-.08,15.18.01,7.72-.08,15.44-.04,23.16-.05,1.48,0,2.97-.03,4.44.14,11.45-.36,22.9,0,34.34-.21,1.16.44,2.33.05,3.5.05,6.63,0,13.24-.01,19.87.03,1.09,0,2.26-.17,3.11.82l-.03.03Z"/>
  <path class="cls-49" d="m143.23,233.55c1.07-7.94,7.08-13.74,16.12-13.88.64-.53,1.4-.77,2.23-.78,5.35-.03,10.71-.15,16.07.06.93.35,1.83-.09,2.75-.09,8.78,0,17.55-.14,26.34.09,10.69-.17,21.4-.19,32.09,0,.93.36,1.83-.08,2.75-.08,7.41-.01,14.84-.09,22.25.04,2.47.04,4.94-.09,7.42-.06,7.06.05,14.14-.04,21.21.04,1.04.41,2.55-.54,3.18,1.08-.26.81-.95.89-1.65.94-1.06.09-2.11.06-3.17.06-27.14,0-54.29.18-81.43-.1-7.73-.08-17.47,7.49-14.33,19.13,1.25,4.63,4.47,7.77,8.83,9.75.8.36,2.11.44,1.58,1.93-.86.51-1.81.32-2.73.32-12.84.01-25.7.01-38.54,0-2.17,0-4.34,0-6.49.45-4.05-.42-7.67-1.78-10.36-5.02-3.29-2.74-4.8-6.31-4.94-10.53-.01-.5.03-.99.3-1.43.6-.53.26-1.3.5-1.93Z"/>
  <path class="cls-8" d="m157.85,296.93c-5.57.03-11.16.08-16.73.08-10.47.01-20.94,0-31.41.01-3.81-.35-6.96-2.1-9.81-4.54-2.2-2.63-3.87-5.52-4.43-8.97-.28-.66.03-1.39-.28-2.03.03-.1.06-.21.08-.31,0-.05-.04-.1-.06-.15.4-1.54.37-3.17.89-4.71,2.15-6.5,8.06-10.9,14.93-11.04.55,0,1.11-.05,1.66-.06.63-.72,1.51-.78,2.37-.78,5.3-.03,10.6-.08,15.89.01,6.76-.06,13.51-.05,20.25-.04,2.73,0,5.46-.09,8.18.08.51.18,1.09.13,1.58.42.75,1.38-.41,1.48-1.17,1.51-2.68.12-4.86,1.35-6.99,2.78-7,4.68-8.24,15.53-2.59,21.81,1.79,1.98,3.8,3.53,6.29,4.47.67.24,1.47.5,1.33,1.51v-.03Z"/>
  <path class="cls-56" d="m130.99,265.18h-18.29c-.03-.75.39-1.27.9-1.76,3.19-3.1,6.43-6.14,9.54-9.32,4.79-4.9,10.11-9.25,14.71-14.37,1.51-1.67,3.23-3.24,5.01-4.7.26.12.3.27.12.49.28,4.36,1.74,8.24,4.74,11.48.48,1.02.35,1.89-.55,2.65-2.55,2.12-5.1,4.34-7.21,6.81-2.42,2.83-5.65,4.79-7.77,7.85-.3.42-.81.55-1.18.89h0Z"/>
  <path class="cls-56" d="m177.64,219.67h-18.29c.18-.76.64-1.33,1.21-1.83,4.85-4.3,9.32-9.02,14.09-13.41,2.56-2.35,5.12-4.81,7.42-7.46,1.11,1.98,1.99,4.09,3.51,5.84,1.27,1.47,2.83,2.59,4.41,3.67.59.91.21,1.65-.48,2.29-2.47,2.32-4.58,5.01-7.3,7.08-.6.46-.98,1.11-1.42,1.7-.82,1.09-2.06,1.52-3.18,2.12Z"/>
  <path class="cls-56" d="m222.03,176.41h-17.54c-.01-.73.31-1.33.88-1.75,2.73-2.02,4.71-4.84,7.45-6.85.77-.57,1.33-1.45,1.36-2.52h18.29c.62.8.12,1.38-.37,1.96-2.32,2.74-5.11,4.99-7.57,7.59-.69.73-1.78.88-2.51,1.56h.01Z"/>
  <path class="cls-43" d="m142.97,235.52c-.04-.17-.08-.32-.12-.49.13-.49.24-.99.37-1.48-.09.66-.17,1.31-.26,1.97Z"/>
  <path class="cls-39" d="m97.79,421.58c-1.35,1.67-2.86,3.18-4.85,4.1-1.8-.86-1.25-1.72-.09-2.75,1.12-.98,2.11-2.05,3.53-2.69,1.26-.58,1.53-.5.98.85-.12.28.19.41.44.49Z"/>
  <path class="cls-39" d="m103.76,415.98c-.5.37-.99.75-1.49,1.12-.49-1.16-1.18-.4-1.83-.21-.8.23-1.06,1.16-2.05,1.6.41-1.16.75-2.11,1.49-2.72.99-.78,2.12-2.05,3.18.03.08.14.45.13.69.19h0Z"/>
  <path class="cls-39" d="m126.51,393.59c-.27.48-.64.85-1.12,1.12-.69-1.38-1.96-.44-3.11-.67,1.04-1.3,1.94-2.2,3.37-.71.18.19.57.18.86.26Z"/>
  <path class="cls-39" d="m118.14,399.3c-.27.58-.67,1.12-1.4,1.22-.35.05-.59-.21-.51-.57.17-.75.73-1.09,1.42-1.26.37-.09.55.15.49.6h.01Z"/>
  <path class="cls-39" d="m111.03,406.41c-.35-.01-.48-.24-.41-.49.15-.62.57-1.08,1.18-1.24.3-.08.44.22.37.48-.15.63-.59,1.03-1.15,1.25Z"/>
  <path class="cls-39" d="m109.35,410.38c-.37.24-.75.5-1.12.75-.1-.21-.18-.45-.33-.63-.32-.4-.99-.8-.3-1.29.55-.39.77.27,1.06.64.17.22.45.36.68.54h.01Z"/>
  <path class="cls-39" d="m121.37,395.98c-.36.81-.77,1.31-1.45,1.44-.3.06-.41-.27-.31-.5.27-.69.84-.97,1.76-.94h0Z"/>
  <path class="cls-39" d="m120.54,399.56c-.27.48-.64.85-1.12,1.12.1-.64.48-1.02,1.12-1.12Z"/>
  <path class="cls-6" d="m142.97,324.41c.3.77.31,1.58.28,2.39-.46-.76-.28-1.58-.28-2.39Z"/>
  <path class="cls-6" d="m143.26,321.95c.03.81.01,1.62-.28,2.41,0-.8-.03-1.6-.04-2.41h.32Z"/>
  <path class="cls-5" d="m95.21,281.47c.3.66.3,1.34.28,2.03-.41-.63-.28-1.34-.28-2.03Z"/>
  <path class="cls-22" d="m267.64,133.49c.59.01,1.17.04,1.76.05,6.79.53,10.35,4.86,12.55,10.74.85,2.26-.3,4.5-.15,6.76-1.21,6.88-5.01,11.53-11.8,13.55-.64.19-1.33.21-1.99.31-12.38,0-24.74-.03-37.12-.04h-49.99c-7.59,0-14.26-6.87-14.5-14.45-.17-5.21,1.36-9.54,5.29-12.95,2.74-2.39,5.88-3.91,9.6-3.91h83.76c.88,0,1.74-.03,2.61-.05h0Z"/>
  <path class="cls-54" d="m283.98,176.41h-34.33c-.6-.62-.51-1.33,0-1.83,3.29-3.17,6.18-6.76,10.06-9.28l8.15-.12c6.86,0,13.73,0,20.59.01,2.11.03,4.22.06,6.33.09.51,1.43-.63,2.23-1.36,2.97-2.38,2.39-5.02,4.54-7.32,7.03-.57.6-1.43.69-2.11,1.12h0Z"/>
  <path class="cls-16" d="m259.71,165.29c-.69,1.51-1.89,2.65-3.1,3.65-2.24,1.87-4.01,4.18-6.27,6.01-.48.39-.69.85-.71,1.44h-27.61c.12-.63.41-1.12.94-1.54,3.33-2.7,6.23-5.85,9.24-8.9.15-.15.19-.45.28-.68h27.23v.03Z"/>
  <path class="cls-37" d="m205.61,251.44c-2.95-1.2-5.65-2.68-7.91-5.04-5.03-5.26-5.57-14.55-.95-20.19,3.33-4.05,7.44-6.18,12.89-6.15,28.63.12,57.26.05,85.89.05.12-.18.26-.31.45-.41.5-.17,1-.14,1.52-.06,6.47,1.74,10.59,5.88,12.03,12.39.76,3.41.58,6.91-.86,10.2-2.53,5.08-6.01,8.92-12.17,9.19-.44.04-.89.06-1.33.1-.6.58-1.38.5-2.11.5h-85.37c-.72,0-1.52.15-2.07-.55v-.03Z"/>
  <path class="cls-10" d="m296.5,251.4c5.17-1.42,8.99-4.48,11.39-9.29,3.67-4.39,7.98-8.12,12.13-12.03,2.44-2.29,4.59-4.88,7.23-6.97.58-.46.93-1.12,1.24-1.78-.71-.55-1.42-.36-2.07-.36-6.59-.01-13.18-.05-19.77,0-3.18.03-6.32-.12-9.43-.82l-1.33-.1c.31-1.38,1.47-1.13,2.38-1.16,4.39-.1,8.78-.04,13.16-.04,2.03,0,4.08-.06,6.11.04,6.94-.06,13.87-.06,20.79-.01,1.07,0,2.28-.27,3.06.86h2.96c.58.41,1.3-.04,1.88.32,2.78.67,5.48,1.53,7.53,3.72-3.29,3.08-6.46,6.32-9.78,9.32-3.87,3.5-7.12,7.66-11.4,10.74-1.57,1.13-2.73,2.84-4.09,4.29-2.17,2.29-4.61,3.51-8.02,3.4-7.99-.28-16.01-.12-24-.13h.01Z"/>
  <path class="cls-51" d="m306.01,269.29c-2.93-3-6.72-3.73-10.67-4-.68-.05-1.36-.03-2.05-.04-.58-.75-.13-1.3.4-1.75,3.08-2.57,5.43-5.87,8.6-8.35,1.38-1.08,2.21-2.82,4.07-3.35h24.99c.12,1.06-.23,1.88-1.04,2.63-4.19,3.9-8.26,7.95-12.34,11.97-2.59,2.55-5.25,4.99-7.91,7.46-1.3-1.57-2.19-3.51-4.05-4.57h.01Z"/>
  <path class="cls-17" d="m306.37,251.8c-1.71,2.43-4.13,4.21-6.1,6.38-2.23,2.46-4.94,4.41-6.96,7.05h-23.51c-.67-.86-.14-1.51.41-2.11,1.04-1.15,2.14-2.3,3.36-3.17,2.03-1.42,3.42-3.36,5.1-5.07,1.39-1.42,2.92-2.59,4.81-3.27,3.9.08,7.8-.17,11.7.13,3.73.01,7.46.03,11.2.04h0Z"/>
  <path class="cls-10" d="m295.16,251.76c-4.1.06-8.21.12-12.31.18-.73.53-1.57.73-2.46.73-7.01,0-14.03.09-21.05-.04-3.2,0-6.42.09-9.63.06-5.49-.05-11,.08-16.5-.06-3.46.06-6.91.08-10.37.05-5.13-.03-10.26.08-15.39-.05-.81-.27-1.61.04-2.41.04-11,0-22,.09-33.01-.04-4.19,0-8.38.14-12.57.01-.91-.03-2.07.23-2.38-1.16,15.36,0,30.73.01,46.09.03.8,0,1.61-.05,2.41-.08,1.8.05,3.59.15,5.39.15,26.82,0,53.62,0,80.44-.01,1.24,0,2.48-.05,3.72-.08v.27h.03Z"/>
  <path class="cls-51" d="m258.6,297.31c6.7-.54,13.43-.22,20.15-.33,6.46,0,12.92,0,19.38.01-1.67.68-3.42.26-5.13.32-2.23.08-4.45.12-6.68-.01-1.56-.09-2.74.42-3.4,1.72-1.16,2.3-3.5,3.37-5.15,5.19-1.22,1.35-2.57,2.64-3.89,3.94h-25c-.68-.88-.17-1.57.44-2.1,2.2-1.88,4.09-4.09,6.37-5.89,1.06-.84,1.76-2.06,2.88-2.84h.03Z"/>
  <path class="cls-17" d="m341.43,219.73h-23.88c-.48-.77-.18-1.45.36-2.01,2.72-2.84,5.42-5.7,8.52-8.16.59-.48,1.44-.4,1.94-1l4.45-.14c.39-.26.76-.24,1.09.09,5.98.01,11.97.03,17.95.05-.22.5-.3,1.17-.68,1.48-2.57,2.11-4.53,4.85-7.06,6.97-1,.84-1.98,1.65-2.72,2.73h.03Z"/>
  <path class="cls-17" d="m346.26,220.05c-.64.03-1.3.08-1.88-.32.64,0,1.3-.1,1.88.32Z"/>
  <path class="cls-58" d="m333.92,208.5c-.36-.03-.73-.05-1.09-.09-.82-.41-1.71-.26-2.57-.26-27.52,0-55.06-.14-82.59.1-6.16.05-12.86-4.8-14.72-10.8-2.82-9.05,2.56-18.45,11.81-20.42.9-.19,1.85-.21,2.78-.21h84.08c.81,0,1.62-.03,2.42-.04.58.03,1.16.05,1.72.08,6.34.54,9.93,4.62,11.89,10.08,2.2,6.13.94,11.85-3.41,16.82-2.37,2.7-5.29,4.21-8.89,4.36-.5.05-1.07-.17-1.44.37h.01Z"/>
  <path class="cls-19" d="m335.36,208.11c3.77-1.16,7.04-3.05,9.39-6.32,6.14-8.52,2.53-20.52-7.27-24.24-.58-.22-1.13-.46-1.71-.69,8.93-.03,17.85-.05,26.78-.06,3.91,0,7.81,0,11.72.01-.13,1.83-1.27,3.19-2.6,4.1-1.6,1.12-2.99,2.39-4.26,3.81-2.15,2.39-4.84,4.26-6.88,6.67-2.19,2.59-5.26,4.22-7.19,6.85-2.46,3.37-6.5,5.15-8.45,8.92-.17.32-.32.66-.48.99-3.02,0-6.04-.03-9.06-.03h.01Z"/>
  <path class="cls-33" d="m181.74,297.45h29.48c.82,1.02.23,1.8-.55,2.34-2.55,1.79-4.47,4.22-6.6,6.42-.85.88-2.03,1.15-2.92,1.93h-26.21c-.69,0-1.63.32-1.98-.57-.33-.85.46-1.34.97-1.85,2.2-2.23,4.83-4.01,6.64-6.63.39-.55,1.02-.91,1.17-1.63h.01Z"/>
  <path class="cls-39" d="m201.15,308.15c1.15-2.08,3.23-3.31,4.71-5.08,1.3-1.57,2.79-2.95,4.52-4.05.55-.36.84-.89.85-1.56h24.63c.72.86.18,1.47-.41,2.05-2.38,2.39-4.74,4.81-7.14,7.17-.75.73-1.74.89-2.52,1.47h-24.63,0Z"/>
  <path class="cls-17" d="m225.78,308.15c.19-.8.95-1.12,1.47-1.63,2.66-2.66,5.34-5.31,8.04-7.95.33-.32.54-.66.57-1.12,5.8-.05,11.62-.12,17.42-.14,1.78,0,3.56-.53,5.34,0-.17,1.54-1.17,2.63-2.26,3.47-2.46,1.88-4.4,4.32-6.82,6.25-.31.24-.41.73-.6,1.11h-23.15Z"/>
  <path class="cls-15" d="m281.79,151.06c.32-5.51-1.33-10.22-5.55-13.94-1.99-1.76-4.4-2.7-6.85-3.56h25.76c-.26,1.99-1.96,2.95-3.2,4.13-2.28,2.16-4.31,4.58-6.85,6.47-2.29,1.71-3.06,4.19-3.33,6.9h.01Z"/>
  <path class="cls-3" d="m283.98,176.41c1.98-2.44,4.27-4.62,6.63-6.68,1.54-1.35,2.91-2.83,4.17-4.43,5.93-.01,11.88-.1,17.81-.03,3.62.05,7.15-.19,10.56-1.52-2.05,1.94-4.08,3.89-6.13,5.83-2.29,2.17-4.58,4.35-6.56,6.82h-26.48Z"/>
  <path class="cls-58" d="m157.85,296.93c-2.1-1.06-4.31-1.76-6.22-3.29-8.87-7.15-7.28-21.7,2.82-26.57,2.21-1.07,4.48-1.29,6.77-1.75.78-1.29,2.1-.9,3.2-.91,9.38-.05,18.75-.03,28.13-.03.75,0,1.49-.09,2.23.05,2.59.01,5.17-.08,7.77-.06,6,.05,11.99-.08,17.98.06,3.28-.04,6.58-.09,9.86-.05,5.21.05,10.44-.12,15.65.09.77.22,1.75.09,2.11,1.11.46.04.91.06,1.38.1,7.62,1.34,12.48,7.12,12.53,14.89,0,1.18.04,2.35-.06,3.54-.18,2.37-1.43,4.18-3.08,5.76-3.82,5.25-8.98,7.3-15.47,7.26-26.79-.14-53.59-.05-80.4-.05-1.74,0-3.47-.09-5.21-.13h.01Z"/>
  <path class="cls-39" d="m248.14,265.56c-.62-.12-1.24-.24-1.85-.36-.76-1.18.15-1.83.84-2.48,2.35-2.24,4.81-4.4,7.05-6.73,1.57-1.63,3.1-3.13,5.17-4.04h23.51c-.14.55-.35,1.08-.86,1.38-2.15,1.24-3.54,3.2-5.16,4.99-1.35,1.49-3.02,2.69-4.54,4.04-.97.85-2.11,1.54-2.5,2.9-6.5,0-12.98,0-19.48.03-.73,0-1.49-.15-2.16.3h-.01Z"/>
  <path class="cls-20" d="m258.92,289.86c2.39-4.3,3.19-8.81,1.65-13.58-1.78-5.49-5.7-8.81-11.05-10.63h34.9c-4.67,3.86-8.02,8.24-12.35,11.62-1.2.94-2.08,2.25-3.14,3.37-2.35,2.5-5.2,4.49-7.33,7.22-.66.85-1.78,1.34-2.68,1.98h.01Z"/>
  <path class="cls-6" d="m238.82,219.67h-32.09c-1-1.07-.45-1.99.41-2.69,2.78-2.25,5.2-4.88,7.77-7.35.57-.54,1.33-.64,1.89-1.11,10.94-.14,21.89-.18,32.83.03.41.88-.15,1.42-.69,1.93-2.37,2.26-4.8,4.48-7.06,6.86-.9.95-1.84,1.81-3.06,2.33h.01Z"/>
  <path class="cls-16" d="m216.81,208.52c-2.5,3.38-5.69,6.11-8.84,8.84-.76.66-1.33,1.26-1.24,2.3h-29.11c1.49-1.6,2.87-3.33,4.5-4.76,2.6-2.28,4.76-4.97,7.32-7.27.3-.26.36-.76.54-1.15,3.13,1.54,6.45,1.99,9.91,1.97,5.64-.05,11.27.04,16.9.08h.01Z"/>
  <path class="cls-33" d="m292.56,219.67h-28.73c-.53-.58-.33-1.17.08-1.67.55-.66,1.02-1.4,1.7-1.94,1.6-1.26,3.17-2.55,4.36-4.22,1.03-1.44,2.46-2.39,3.94-3.28h29.47c.42.72.15,1.35-.37,1.83-2.99,2.65-5.76,5.53-8.71,8.22-.5.46-1.12.76-1.72,1.07Z"/>
  <path class="cls-39" d="m292.56,219.67c1.06-1.94,2.81-3.23,4.35-4.72,2.17-2.11,4.31-4.26,6.46-6.4h25c-.89,1.61-2.42,2.56-3.76,3.72-2.59,2.26-5.02,4.67-7.06,7.45-6.49,0-12.98,0-19.47.03-.73,0-1.49-.13-2.17.3-.13.01-.24.04-.37.05-.91-.66-1.99-.19-2.97-.42Z"/>
  <path class="cls-42" d="m273.9,208.55c-.1.88-.77,1.34-1.35,1.9-2.82,2.75-5.57,5.57-8.34,8.38-.21.21-.26.55-.39.82h-25c1.63-2.52,3.96-4.4,6.06-6.47,1.58-1.56,3.17-3.09,4.75-4.65h24.27Z"/>
  <path class="cls-16" d="m157.11,251.49c.78.49,1.67.35,2.52.36,4.13.04,8.26.05,12.4.06.62.93-.04,1.45-.59,2.05-3.04,3.23-6.52,6.01-9.39,9.41-.64.76-1.47,1.31-2.33,1.8h-28.73c.35-1.45,1.16-2.63,2.32-3.53,3.08-2.39,5.33-5.65,8.33-8.04,1.79-1.43,2.82-3.63,4.97-4.58.93-.41.67-1.4,1.11-2.05,2.72,2.38,5.75,4.07,9.41,4.5h0Z"/>
  <path class="cls-6" d="m159.73,265.18c1.58-2.75,3.86-4.86,6.19-6.97,2.16-1.97,4.09-4.18,6.13-6.29h35.45c.63.8.14,1.42-.37,1.94-3.14,3.2-6.4,6.29-9.52,9.51-.77.8-1.85,1.2-2.78,1.8-9.65.03-19.3.04-28.94.06-1.54,0-3.09.04-4.63.05-.5-.04-.99-.08-1.49-.13l-.03.03Z"/>
  <path class="cls-46" d="m297.23,220.14c10.63-.01,21.26-.03,31.89-.03.53,0,1.29-.26,1.49.4.21.66-.64.8-1.02,1.17-3.54,3.55-7,7.18-10.67,10.59-3.04,2.83-6.02,5.73-8.96,8.66-.6.6-1.38.82-2.1,1.17,2.06-5.84,1.63-11.35-2.25-16.37-2.17-2.81-5.12-4.45-8.4-5.58h.01Z"/>
  <path class="cls-33" d="m259.35,251.94c-.18.71-.73,1.11-1.22,1.57-3.78,3.55-7.57,7.13-11.32,10.72-.24.23-.33.64-.5.97h-25.75c-.82-1.3.1-2.14.89-2.88,3-2.87,6.1-5.62,8.94-8.63.8-.84,1.9-1.15,2.84-1.74h26.12,0Z"/>
  <path class="cls-3" d="m233.23,251.94c-.36,1.35-1.72,1.71-2.55,2.6-2.73,2.93-5.69,5.64-8.65,8.33-.68.62-1.21,1.4-1.48,2.32h-25.75c.37-1.4,1.71-1.88,2.61-2.78,3.06-3.02,6.1-6.07,9.15-9.12.4-.4.8-.78.93-1.36h25.75v.03Z"/>
</svg>