<?xml version="1.0" standalone="no"?>
<!DOCTYPE svg PUBLIC "-//W3C//DTD SVG 20010904//EN"
 "http://www.w3.org/TR/2001/REC-SVG-20010904/DTD/svg10.dtd">
<svg version="1.0" xmlns="http://www.w3.org/2000/svg"
 width="225.000000pt" height="225.000000pt" viewBox="0 0 225.000000 225.000000"
 preserveAspectRatio="xMidYMid meet">

<g transform="translate(0.000000,225.000000) scale(0.100000,-0.100000)"
fill="#000000" stroke="none">
<path d="M316 2095 c-54 -19 -106 -63 -141 -120 l-30 -48 -3 -779 c-2 -522 1
-792 8 -818 15 -54 67 -119 125 -155 l48 -30 802 0 802 0 48 30 c57 35 110
100 125 153 6 24 10 307 10 807 0 727 -1 772 -19 811 -25 55 -76 111 -125 137
l-41 22 -785 2 c-650 2 -792 0 -824 -12z m837 -387 c-34 -56 -98 -141 -116
-153 -18 -12 -68 -15 -299 -15 l-278 0 0 90 0 90 351 0 c278 0 349 -3 342 -12z
m665 4 c-1 -5 -190 -272 -418 -595 l-414 -587 -279 0 c-220 0 -277 3 -271 13
4 6 192 274 418 595 l411 582 278 0 c153 0 277 -4 275 -8z m-28 -1092 l0 -90
-351 0 c-278 0 -349 3 -342 13 34 55 98 140 116 152 18 12 68 15 299 15 l278
0 0 -90z"/>
</g>
</svg>
