<?xml version="1.0" encoding="utf-8"?>
<!-- Generator: Adobe Illustrator 24.3.0, SVG Export Plug-In . SVG Version: 6.00 Build 0)  -->
<svg version="1.1" id="Layer_1" xmlns="http://www.w3.org/2000/svg" xmlns:xlink="http://www.w3.org/1999/xlink" x="0px" y="0px"
	 viewBox="0 0 138.7 100" style="enable-background:new 0 0 138.7 100;" xml:space="preserve">
<style type="text/css">
	.st0{fill:#5492EF;}
	.st1{fill:#FFFFFF;}
	.st2{fill:#1857B6;}
	.st3{fill:#0F3875;}
	.st4{fill-rule:evenodd;clip-rule:evenodd;fill:#F4D35E;}
	.st5{fill:#11223C;}
	.st6{fill-rule:evenodd;clip-rule:evenodd;fill:#F3D25E;}
	.st7{fill:#628BC8;}
	.st8{fill:#295AA8;}
	.st9{fill:#213B73;}
	.st10{fill:#15223A;}
	.st11{fill-rule:evenodd;clip-rule:evenodd;fill:#EDD171;}
	.st12{fill:#6B8AC2;}
	.st13{fill:#365CA1;}
	.st14{fill:#263C6F;}
</style>
<g id="Lines">
	<g>
		<path class="st4" d="M138.7,30.4c-4.9,3.1-8.3,4.8-12.4,7.2c-24,14.5-47.1,30.6-65,51.9L52.7,100L26.3,58
			c5.9,4.7,20.6,17.9,26.6,20.8l19.4-14.6C85.8,54.7,124,34,138.7,30.4z"/>
	</g>
	<g>
		<path class="st3" d="M46.5,68.5c2,1.6,4,3.1,5.6,4.3c4.4-21.2,0.7-44-10.9-63.8c19.5-0.3,38.9-0.5,58.4-0.8
			c4.4,9.7,6.9,20,7.5,30.6c1.7-0.9,3.4-1.7,5.1-2.5c-0.6-10.8-3.7-22.6-9.6-36.2C76,0,49.5,0,22.9,0C40.2,20.5,48.1,45.3,46.5,68.5
			z"/>
	</g>
	<g>
		<path class="st2" d="M42.9,65.7c0.5,0.5,1.1,0.9,1.6,1.3c-0.8-19.7-8.2-39.8-22.1-57.1c-4.1,0-8.3,0-12.4,0
			C27.9,26.4,38.8,46.3,42.9,65.7z"/>
	</g>
	<path class="st0" d="M38.6,61.9c0.6,0.5,1.2,1,1.9,1.6c-5.2-14.6-14.4-29-27.4-41.6c-4.4,0-8.7,0-13.1,0
		C16.7,33.9,29.6,47.8,38.6,61.9z"/>
</g>
</svg>
