<svg id="my-svg" width="100%" xmlns="http://www.w3.org/2000/svg" xmlns:xlink="http://www.w3.org/1999/xlink" style="max-width: 630.951px; background-color: transparent;" viewBox="-8 -8 630.951171875 712.3199462890625" role="graphics-document document" aria-roledescription="flowchart-v2"><style>#my-svg{font-family:"trebuchet ms",verdana,arial,sans-serif;font-size:14px;fill:#333;}#my-svg .error-icon{fill:#552222;}#my-svg .error-text{fill:#552222;stroke:#552222;}#my-svg .edge-thickness-normal{stroke-width:2px;}#my-svg .edge-thickness-thick{stroke-width:3.5px;}#my-svg .edge-pattern-solid{stroke-dasharray:0;}#my-svg .edge-pattern-dashed{stroke-dasharray:3;}#my-svg .edge-pattern-dotted{stroke-dasharray:2;}#my-svg .marker{fill:#333333;stroke:#333333;}#my-svg .marker.cross{stroke:#333333;}#my-svg svg{font-family:"trebuchet ms",verdana,arial,sans-serif;font-size:14px;}#my-svg .label{font-family:"trebuchet ms",verdana,arial,sans-serif;color:#333;}#my-svg .cluster-label text{fill:#333;}#my-svg .cluster-label span,#my-svg p{color:#333;}#my-svg .label text,#my-svg span,#my-svg p{fill:#333;color:#333;}#my-svg .node rect,#my-svg .node circle,#my-svg .node ellipse,#my-svg .node polygon,#my-svg .node path{fill:#ECECFF;stroke:#9370DB;stroke-width:1px;}#my-svg .flowchart-label text{text-anchor:middle;}#my-svg .node .katex path{fill:#000;stroke:#000;stroke-width:1px;}#my-svg .node .label{text-align:center;}#my-svg .node.clickable{cursor:pointer;}#my-svg .arrowheadPath{fill:#333333;}#my-svg .edgePath .path{stroke:#333333;stroke-width:2.0px;}#my-svg .flowchart-link{stroke:#333333;fill:none;}#my-svg .edgeLabel{background-color:#e8e8e8;text-align:center;}#my-svg .edgeLabel rect{opacity:0.5;background-color:#e8e8e8;fill:#e8e8e8;}#my-svg .labelBkg{background-color:rgba(232, 232, 232, 0.5);}#my-svg .cluster rect{fill:#ffffde;stroke:#aaaa33;stroke-width:1px;}#my-svg .cluster text{fill:#333;}#my-svg .cluster span,#my-svg p{color:#333;}#my-svg div.mermaidTooltip{position:absolute;text-align:center;max-width:200px;padding:2px;font-family:"trebuchet ms",verdana,arial,sans-serif;font-size:12px;background:hsl(80, 100%, 96.2745098039%);border:1px solid #aaaa33;border-radius:2px;pointer-events:none;z-index:100;}#my-svg .flowchartTitleText{text-anchor:middle;font-size:18px;fill:#333;}#my-svg :root{--mermaid-font-family:"trebuchet ms",verdana,arial,sans-serif;}</style><g><marker id="my-svg_flowchart-pointEnd" class="marker flowchart" viewBox="0 0 10 10" refX="6" refY="5" markerUnits="userSpaceOnUse" markerWidth="12" markerHeight="12" orient="auto"><path d="M 0 0 L 10 5 L 0 10 z" class="arrowMarkerPath" style="stroke-width: 1; stroke-dasharray: 1, 0;"/></marker><marker id="my-svg_flowchart-pointStart" class="marker flowchart" viewBox="0 0 10 10" refX="4.5" refY="5" markerUnits="userSpaceOnUse" markerWidth="12" markerHeight="12" orient="auto"><path d="M 0 5 L 10 10 L 10 0 z" class="arrowMarkerPath" style="stroke-width: 1; stroke-dasharray: 1, 0;"/></marker><marker id="my-svg_flowchart-circleEnd" class="marker flowchart" viewBox="0 0 10 10" refX="11" refY="5" markerUnits="userSpaceOnUse" markerWidth="11" markerHeight="11" orient="auto"><circle cx="5" cy="5" r="5" class="arrowMarkerPath" style="stroke-width: 1; stroke-dasharray: 1, 0;"/></marker><marker id="my-svg_flowchart-circleStart" class="marker flowchart" viewBox="0 0 10 10" refX="-1" refY="5" markerUnits="userSpaceOnUse" markerWidth="11" markerHeight="11" orient="auto"><circle cx="5" cy="5" r="5" class="arrowMarkerPath" style="stroke-width: 1; stroke-dasharray: 1, 0;"/></marker><marker id="my-svg_flowchart-crossEnd" class="marker cross flowchart" viewBox="0 0 11 11" refX="12" refY="5.2" markerUnits="userSpaceOnUse" markerWidth="11" markerHeight="11" orient="auto"><path d="M 1,1 l 9,9 M 10,1 l -9,9" class="arrowMarkerPath" style="stroke-width: 2; stroke-dasharray: 1, 0;"/></marker><marker id="my-svg_flowchart-crossStart" class="marker cross flowchart" viewBox="0 0 11 11" refX="-1" refY="5.2" markerUnits="userSpaceOnUse" markerWidth="11" markerHeight="11" orient="auto"><path d="M 1,1 l 9,9 M 10,1 l -9,9" class="arrowMarkerPath" style="stroke-width: 2; stroke-dasharray: 1, 0;"/></marker><g class="root"><g class="clusters"/><g class="edgePaths"><path d="M284.03,32L284.03,37.917C284.03,43.833,284.03,55.667,284.03,66.617C284.03,77.567,284.03,87.633,284.03,92.667L284.03,97.7" id="L-User-UI-0" class="edge-thickness-normal edge-pattern-solid flowchart-link LS-User LE-UI" style="fill:none;" marker-end="url(#my-svg_flowchart-pointEnd)"/><path d="M284.03,148L284.03,152.583C284.03,157.167,284.03,166.333,284.03,174.617C284.03,182.9,284.03,190.3,284.03,194L284.03,197.7" id="L-UI-GW-0" class="edge-thickness-normal edge-pattern-solid flowchart-link LS-UI LE-GW" style="fill:none;" marker-end="url(#my-svg_flowchart-pointEnd)"/><path d="M284.03,248L284.03,252.583C284.03,257.167,284.03,266.333,284.03,274.617C284.03,282.9,284.03,290.3,284.03,294L284.03,297.7" id="L-GW-BE-0" class="edge-thickness-normal edge-pattern-solid flowchart-link LS-GW LE-BE" style="fill:none;" marker-end="url(#my-svg_flowchart-pointEnd)"/><path d="M284.03,376L284.03,381.917C284.03,387.833,284.03,399.667,284.03,410.617C284.03,421.567,284.03,431.633,284.03,436.667L284.03,441.7" id="L-BE-PY-0" class="edge-thickness-normal edge-pattern-solid flowchart-link LS-BE LE-PY" style="fill:none;" marker-end="url(#my-svg_flowchart-pointEnd)"/><path d="M158.918,377.542L140.304,383.202C121.691,388.861,84.464,400.181,65.85,417.84C47.236,435.5,47.236,459.5,47.236,483.5C47.236,507.5,47.236,531.5,49.271,549.002C51.306,566.504,55.377,577.507,57.412,583.009L59.447,588.511" id="L-BE-RD-0" class="edge-thickness-normal edge-pattern-dotted flowchart-link LS-BE LE-RD" style="fill:none;stroke-width:2px;stroke-dasharray:3;" marker-start="url(#my-svg_flowchart-pointStart)" marker-end="url(#my-svg_flowchart-pointEnd)"/><path d="M212.169,522.53L202.051,528.025C191.933,533.52,171.698,544.51,157.054,555.896C142.411,567.282,133.358,579.064,128.832,584.955L124.306,590.846" id="L-PY-RD-0" class="edge-thickness-normal edge-pattern-dotted flowchart-link LS-PY LE-RD" style="fill:none;stroke-width:2px;stroke-dasharray:3;" marker-start="url(#my-svg_flowchart-pointStart)" marker-end="url(#my-svg_flowchart-pointEnd)"/><path d="M289.1,520L289.921,525.917C290.743,531.833,292.387,543.667,293.209,559.643C294.03,575.62,294.03,595.74,294.03,605.8L294.03,615.86" id="L-PY-WK-0" class="edge-thickness-normal edge-pattern-solid flowchart-link LS-PY LE-WK" style="fill:none;" marker-end="url(#my-svg_flowchart-pointEnd)"/><path d="M380.99,376L396.707,381.917C412.425,387.833,443.859,399.667,459.576,417.583C475.294,435.5,475.294,459.5,475.294,483.5C475.294,507.5,475.294,531.5,477.54,548.675C479.787,565.85,484.28,576.199,486.527,581.374L488.773,586.549" id="L-BE-PG-0" class="edge-thickness-normal edge-pattern-solid flowchart-link LS-BE LE-PG" style="fill:none;" marker-end="url(#my-svg_flowchart-pointEnd)"/><path d="M400.617,520L419.516,525.917C438.415,531.833,476.213,543.667,495.111,554.617C514.01,565.567,514.01,575.633,514.01,580.667L514.01,585.7" id="L-PY-PG-0" class="edge-thickness-normal edge-pattern-solid flowchart-link LS-PY LE-PG" style="fill:none;" marker-end="url(#my-svg_flowchart-pointEnd)"/></g><g class="edgeLabels"><g class="edgeLabel" transform="translate(284.0302734375, 67.5)"><g class="label" transform="translate(-22.9453125, -8)"><rect rx="0" ry="0" width="45.845237731933594" height="16.000516891479492"/><text style=""><tspan xml:space="preserve" dy="1em" x="0" class="row">HTTPS</tspan></text></g></g><g class="edgeLabel"><g class="label" transform="translate(0, 0)"><rect rx="0" ry="0" width="0" height="0"/><text style=""><tspan xml:space="preserve" dy="1em" x="0" class="row"/></text></g></g><g class="edgeLabel"><g class="label" transform="translate(0, 0)"><rect rx="0" ry="0" width="0" height="0"/><text style=""><tspan xml:space="preserve" dy="1em" x="0" class="row"/></text></g></g><g class="edgeLabel" transform="translate(284.0302734375, 411.5)"><g class="label" transform="translate(-18.6796875, -8)"><rect rx="0" ry="0" width="37.3137092590332" height="16.000516891479492"/><text style=""><tspan xml:space="preserve" dy="1em" x="0" class="row">gRPC</tspan></text></g></g><g class="edgeLabel" transform="translate(47.236328125, 483.5)"><g class="label" transform="translate(-45.90625, -8)"><rect rx="0" ry="0" width="91.72172546386719" height="16.000516891479492"/><text style=""><tspan xml:space="preserve" dy="1em" x="0" class="row">Redis Streams</tspan></text></g></g><g class="edgeLabel" transform="translate(151.462890625, 555.5)"><g class="label" transform="translate(-45.90625, -8)"><rect rx="0" ry="0" width="91.72172546386719" height="16.000516891479492"/><text style=""><tspan xml:space="preserve" dy="1em" x="0" class="row">Redis Streams</tspan></text></g></g><g class="edgeLabel"><g class="label" transform="translate(0, 0)"><rect rx="0" ry="0" width="0" height="0"/><text style=""><tspan xml:space="preserve" dy="1em" x="0" class="row"/></text></g></g><g class="edgeLabel"><g class="label" transform="translate(0, 0)"><rect rx="0" ry="0" width="0" height="0"/><text style=""><tspan xml:space="preserve" dy="1em" x="0" class="row"/></text></g></g><g class="edgeLabel"><g class="label" transform="translate(0, 0)"><rect rx="0" ry="0" width="0" height="0"/><text style=""><tspan xml:space="preserve" dy="1em" x="0" class="row"/></text></g></g></g><g class="nodes"><g class="node default default flowchart-label" id="flowchart-User-0" data-node="true" data-id="User" transform="translate(284.0302734375, 16)"><rect style="" rx="16" ry="16" x="-33.8671875" y="-16" width="67.734375" height="32"/><g class="label" style="" transform="translate(0, -8.5)"><rect/><text style=""><tspan xml:space="preserve" dy="1em" x="0" class="row">👤 You</tspan></text></g></g><g class="node default default flowchart-label" id="flowchart-UI-1" data-node="true" data-id="UI" transform="translate(284.0302734375, 125.5)"><rect class="basic label-container" style="fill:#61DAFB;" rx="0" ry="0" x="-34.734375" y="-22.5" width="69.46875" height="45"/><g class="label" style="color:#000;" transform="translate(0, -15)"><rect/><text style="fill:#000;"><tspan xml:space="preserve" dy="1em" x="0" class="row">React UI</tspan><tspan xml:space="preserve" dy="1em" x="0" class="row">:3000</tspan></text></g></g><g class="node default default flowchart-label" id="flowchart-GW-2" data-node="true" data-id="GW" transform="translate(284.0302734375, 225.5)"><rect class="basic label-container" style="fill:#6DB33F;" rx="0" ry="0" x="-101.38232421875" y="-22.5" width="202.7646484375" height="45"/><g class="label" style="color:#fff;" transform="translate(0, -15)"><rect/><text style="fill:#fff;"><tspan xml:space="preserve" dy="1em" x="0" class="row">API Gateway</tspan><tspan xml:space="preserve" dy="1em" x="0" class="row">Spring Cloud Gateway · :8080</tspan></text></g></g><g class="node default default flowchart-label" id="flowchart-BE-3" data-node="true" data-id="BE" transform="translate(284.0302734375, 339.5)"><rect class="basic label-container" style="fill:#7F52FF;" rx="0" ry="0" x="-142.5078125" y="-36.5" width="285.015625" height="73"/><g class="label" style="color:#fff;" transform="translate(0, -29)"><rect/><text style="fill:#fff;"><tspan xml:space="preserve" dy="1em" x="0" class="row">Kotlin Backend</tspan><tspan xml:space="preserve" dy="1em" x="0" class="row">Spring Boot · :8091 · gRPC :9090</tspan><tspan xml:space="preserve" dy="1em" x="0" class="row"/><tspan xml:space="preserve" dy="1em" x="0" class="row">OWNS: auth · users · workspaces</tspan><tspan xml:space="preserve" dy="1em" x="0" class="row">collections · notes · settings · chat sessions</tspan></text></g></g><g class="node default default flowchart-label" id="flowchart-PY-4" data-node="true" data-id="PY" transform="translate(284.0302734375, 483.5)"><rect class="basic label-container" style="fill:#3776AB;" rx="0" ry="0" x="-130.046875" y="-36.5" width="260.09375" height="73"/><g class="label" style="color:#fff;" transform="translate(0, -29)"><rect/><text style="fill:#fff;"><tspan xml:space="preserve" dy="1em" x="0" class="row">Python AI Backend</tspan><tspan xml:space="preserve" dy="1em" x="0" class="row">gRPC :9091 · :8090</tspan><tspan xml:space="preserve" dy="1em" x="0" class="row"/><tspan xml:space="preserve" dy="1em" x="0" class="row">PURE AI/ML: RAG · LLM · embeddings</tspan><tspan xml:space="preserve" dy="1em" x="0" class="row">document parsing · vector search</tspan></text></g></g><g class="node default default flowchart-label" id="flowchart-WK-5" data-node="true" data-id="WK" transform="translate(294.0302734375, 643.6599578857422)"><rect class="basic label-container" style="" rx="0" ry="0" x="-74.0390625" y="-22.5" width="148.078125" height="45"/><g class="label" style="" transform="translate(0, -15)"><rect/><text style=""><tspan xml:space="preserve" dy="1em" x="0" class="row">Celery Workers</tspan><tspan xml:space="preserve" dy="1em" x="0" class="row">document processing</tspan></text></g></g><g class="node default default flowchart-label" id="flowchart-PG-6" data-node="true" data-id="PG" transform="translate(514.01025390625, 643.6599578857422)"><path style="fill:#336791;" d="M 0,15.439970483408867 a 100.94091796875,15.439970483408867 0,0,0 201.8818359375 0 a 100.94091796875,15.439970483408867 0,0,0 -201.8818359375 0 l 0,74.43997048340887 a 100.94091796875,15.439970483408867 0,0,0 201.8818359375 0 l 0,-74.43997048340887" transform="translate(-100.94091796875,-52.659955725113306)"/><g class="label" style="color:#fff;" transform="translate(0, -22)"><rect/><text style="fill:#fff;"><tspan xml:space="preserve" dy="1em" x="0" class="row">PostgreSQL + pgvector</tspan><tspan xml:space="preserve" dy="1em" x="0" class="row">:15432</tspan><tspan xml:space="preserve" dy="1em" x="0" class="row">scrapalot_backend · scrapalot</tspan></text></g></g><g class="node default default flowchart-label" id="flowchart-RD-7" data-node="true" data-id="RD" transform="translate(80.189453125, 643.6599578857422)"><path style="fill:#DC382D;" d="M 0,14.049646166691762 a 80.189453125,14.049646166691762 0,0,0 160.37890625 0 a 80.189453125,14.049646166691762 0,0,0 -160.37890625 0 l 0,73.04964616669176 a 80.189453125,14.049646166691762 0,0,0 160.37890625 0 l 0,-73.04964616669176" transform="translate(-80.189453125,-50.57446925003764)"/><g class="label" style="color:#fff;" transform="translate(0, -22)"><rect/><text style="fill:#fff;"><tspan xml:space="preserve" dy="1em" x="0" class="row">Redis</tspan><tspan xml:space="preserve" dy="1em" x="0" class="row">:6379</tspan><tspan xml:space="preserve" dy="1em" x="0" class="row">cache · Streams SAGA</tspan></text></g></g></g></g></g></svg>